<svg width="114" height="42" viewBox="0 0 114 42" fill="none" xmlns="http://www.w3.org/2000/svg">
<path d="M23.0604 12.7468H2.13854C0.957456 12.7468 0 13.6938 0 14.8619V18.9775C0 20.1457 0.957456 21.0926 2.13854 21.0926H23.0604C24.2415 21.0926 25.199 20.1457 25.199 18.9775V14.8619C25.199 13.6938 24.2415 12.7468 23.0604 12.7468Z" fill="url(#paint0_linear_1955_27225)"/>
<path d="M32.5173 4.5H10.2049C9.02386 4.5 8.06641 5.44698 8.06641 6.61511V18.8772C8.06641 20.0453 9.02386 20.9923 10.2049 20.9923H32.5173C33.6984 20.9923 34.6558 20.0453 34.6558 18.8772V6.61511C34.6558 5.44698 33.6984 4.5 32.5173 4.5Z" fill="url(#paint1_linear_1955_27225)"/>
<path d="M39.8667 12.7239H27.3302C26.1533 12.7239 25.1992 13.6675 25.1992 14.8315V27.2306C25.1992 28.3946 26.1533 29.3383 27.3302 29.3383H39.8667C41.0436 29.3383 41.9977 28.3946 41.9977 27.2306V14.8315C41.9977 13.6675 41.0436 12.7239 39.8667 12.7239Z" fill="url(#paint2_linear_1955_27225)"/>
<path d="M39.8612 20.9919H18.9393C17.7582 20.9919 16.8008 21.9389 16.8008 23.107V35.3816C16.8008 36.5497 17.7582 37.4967 18.9393 37.4967H39.8612C41.0423 37.4967 41.9998 36.5497 41.9998 35.3816V23.107C41.9998 21.9389 41.0423 20.9919 39.8612 20.9919Z" fill="url(#paint3_linear_1955_27225)"/>
<path d="M39.8589 29.239H2.13854C0.957456 29.239 0 30.186 0 31.3541V35.385C0 36.5531 0.957456 37.5001 2.13854 37.5001H39.8589C41.04 37.5001 41.9975 36.5531 41.9975 35.385V31.3541C41.9975 30.186 41.04 29.239 39.8589 29.239Z" fill="url(#paint4_linear_1955_27225)"/>
<path d="M18.7419 20.9766L32.6285 20.9766C33.7484 20.9766 34.6562 20.0787 34.6562 18.9711V14.7284C34.6562 13.6208 33.7484 12.7229 32.6285 12.7229L18.7419 12.7229C17.622 12.7229 16.7142 13.6208 16.7142 14.7284V18.9711C16.7142 20.0787 17.622 20.9766 18.7419 20.9766Z" fill="url(#paint5_linear_1955_27225)"/>
<path d="M18.7419 20.9766L32.6285 20.9766C33.7484 20.9766 34.6562 20.0787 34.6562 18.9711V14.7284C34.6562 13.6208 33.7484 12.7229 32.6285 12.7229L18.7419 12.7229C17.622 12.7229 16.7142 13.6208 16.7142 14.7284V18.9711C16.7142 20.0787 17.622 20.9766 18.7419 20.9766Z" fill="url(#paint6_linear_1955_27225)"/>
<path d="M54 4.93994H58.311C59.5689 4.93994 60.4905 5.21516 61.0813 5.76837C61.6693 6.32158 61.9661 7.17479 61.9661 8.33351C61.9661 10.1473 61.2368 11.2565 59.7781 11.661L62.0848 16.3179H60.8721L58.6332 11.8757H55.1307V16.3179H54.0028V4.94268L54 4.93994ZM58.3279 10.8904C60.0014 10.8904 60.8353 10.0537 60.8353 8.38305C60.8353 6.71241 59.9929 5.92525 58.311 5.92525H55.1279V10.8931H58.3279V10.8904Z" fill="#59595C"/>
<path d="M63.7666 14.0065C63.7666 13.2414 63.9645 12.6661 64.3631 12.2781C64.7617 11.89 65.3977 11.6533 66.274 11.5652L69.0528 11.3038V10.5661C69.0528 9.98817 68.9256 9.5643 68.674 9.29457C68.4224 9.02485 68.0663 8.89275 67.6055 8.89275C67.0542 8.89275 66.503 8.91751 65.9461 8.96705C65.3892 9.01659 64.8323 9.06889 64.2698 9.12393L64.2189 8.30375C65.4316 8.07531 66.5143 7.95972 67.4698 7.95972C68.4253 7.95972 69.0839 8.16338 69.5164 8.57347C69.9489 8.98357 70.1638 9.64688 70.1638 10.5661V14.8927C70.1638 15.0799 70.2571 15.2285 70.4408 15.3441C70.6246 15.4597 70.8818 15.545 71.2069 15.5973L71.156 16.4836C70.3023 16.4836 69.6521 16.2551 69.2026 15.7955C68.1935 16.2551 67.1588 16.4836 66.1044 16.4836C65.3298 16.4836 64.7475 16.2689 64.3546 15.8368C63.9617 15.4047 63.7666 14.7964 63.7666 14.0093V14.0065ZM66.2571 15.5478C66.65 15.5478 67.0429 15.512 67.4359 15.4405C67.8288 15.3689 68.2274 15.2698 68.6316 15.1377L69.0528 15.0056V12.1212L66.4097 12.3827C65.8698 12.4377 65.4853 12.5863 65.2564 12.834C65.0274 13.079 64.9115 13.4588 64.9115 13.9735C64.9115 15.0221 65.361 15.5478 66.2599 15.5478H66.2571Z" fill="#59595C"/>
<path d="M75.6201 16.4805C75.1254 16.4805 74.6335 16.4502 74.1388 16.3897C73.6441 16.3291 73.1579 16.2548 72.6745 16.1695L72.7423 15.253C73.3812 15.341 73.9437 15.4126 74.4271 15.4649C74.9105 15.5199 75.3317 15.5475 75.6907 15.5475C76.3862 15.5475 76.9035 15.4319 77.2399 15.2034C77.5763 14.975 77.7459 14.5979 77.7459 14.0722C77.7459 13.8108 77.6639 13.5878 77.5028 13.4089C77.3388 13.2273 77.1381 13.0786 76.8978 12.9575C76.6575 12.8364 76.3946 12.7456 76.1148 12.6796C75.8349 12.6135 75.5748 12.564 75.3402 12.5309C74.8342 12.4429 74.4045 12.341 74.0512 12.2282C73.6978 12.1126 73.4123 11.9722 73.1918 11.8016C72.9741 11.631 72.813 11.4245 72.7112 11.1796C72.6095 10.9346 72.5586 10.6401 72.5586 10.3016C72.5586 9.4704 72.83 8.87591 73.3756 8.51536C73.9211 8.1548 74.7155 7.97314 75.7586 7.97314C76.1855 7.97314 76.6491 8.00066 77.1466 8.05571C77.6469 8.11076 78.119 8.18232 78.5685 8.26764L78.5346 9.18416C78.0399 9.11811 77.5565 9.05481 77.0787 8.99701C76.601 8.93646 76.1487 8.90618 75.7247 8.90618C75.0067 8.90618 74.4837 9.01627 74.1586 9.2337C73.8335 9.45113 73.6695 9.77591 73.6695 10.1998C73.6695 10.5823 73.8222 10.8741 74.1247 11.0777C74.4271 11.2814 74.9727 11.4576 75.7586 11.6117C76.0611 11.6777 76.3918 11.7576 76.7508 11.8484C77.1098 11.942 77.4462 12.0741 77.76 12.2502C78.0738 12.4264 78.3339 12.6493 78.543 12.9218C78.7494 13.1943 78.854 13.5383 78.854 13.9539C78.854 14.8401 78.5939 15.4814 78.071 15.8805C77.548 16.2796 76.7339 16.4777 75.6201 16.4777V16.4805Z" fill="#59595C"/>
<path d="M83.8178 16.4972C83.4023 16.4972 83.0517 16.4504 82.7662 16.3569C82.4807 16.2633 82.2489 16.1064 82.0765 15.8807C81.9012 15.6578 81.7796 15.3523 81.7061 14.9697C81.6326 14.5871 81.5959 14.111 81.5959 13.544V9.05227H80.3662V8.11924H81.5959V5.57886H82.7068V8.11924H85.4517V9.05227H82.7068V13.2825C82.7068 13.6211 82.7153 13.9293 82.7323 14.2101C82.7492 14.4908 82.8001 14.7303 82.8849 14.9312C82.9697 15.1321 83.097 15.289 83.2722 15.3991C83.4475 15.5092 83.6849 15.5642 83.9874 15.5642L85.5196 15.4486L85.5874 16.3183C85.1832 16.3844 84.8411 16.4312 84.5613 16.4587C84.2814 16.4862 84.0326 16.5 83.8206 16.5L83.8178 16.4972Z" fill="#59595C"/>
<path d="M87.1025 12.2863C87.1025 10.8551 87.3824 9.77624 87.9449 9.04963C88.5075 8.32303 89.3923 7.95972 90.605 7.95972C91.7273 7.95972 92.581 8.27623 93.1633 8.90926C93.7456 9.54229 94.0001 10.5111 93.9209 11.8102L93.87 12.6304H88.2135C88.2135 13.1671 88.2559 13.6184 88.3407 13.99C88.4255 14.3615 88.5668 14.6616 88.7704 14.8927C88.9711 15.1212 89.2425 15.2891 89.5789 15.3937C89.9153 15.4983 90.3365 15.5506 90.8425 15.5506C91.1676 15.5506 91.535 15.545 91.9449 15.534C92.3548 15.523 92.7393 15.501 93.0983 15.468L93.6043 15.4184L93.6382 16.2386C92.4481 16.4038 91.4276 16.4836 90.5739 16.4836C89.9237 16.4836 89.3753 16.3845 88.9315 16.1891C88.4877 15.9937 88.1315 15.7102 87.863 15.3441C87.5944 14.9781 87.3994 14.535 87.2835 14.0175C87.1647 13.5001 87.1082 12.9221 87.1082 12.2891L87.1025 12.2863ZM88.1965 11.7937H92.81C92.81 10.756 92.6347 10.0129 92.287 9.56431C91.9393 9.11569 91.3767 8.89275 90.6022 8.89275C89.8276 8.89275 89.1916 9.12393 88.793 9.58907C88.3944 10.0542 88.1965 10.7891 88.1965 11.7937Z" fill="#59595C"/>
<path d="M95.6201 12.203C95.6201 11.614 95.6767 11.0608 95.7897 10.5461C95.9028 10.0315 96.0866 9.58282 96.3466 9.19474C96.6039 8.80667 96.9374 8.50117 97.3473 8.27549C97.7572 8.05255 98.2661 7.9397 98.871 7.9397C99.2639 7.9397 99.6597 7.96171 100.058 8.00575C100.457 8.04979 100.887 8.11035 101.347 8.18741L101.296 9.05713C101.263 9.05713 101.175 9.04888 101.036 9.03237C100.895 9.01585 100.731 8.99934 100.539 8.98283C100.347 8.96631 100.149 8.95255 99.9424 8.94154C99.736 8.93053 99.5466 8.92502 99.377 8.92502C98.8371 8.92502 98.4017 8.99933 98.0625 9.1452C97.7261 9.29383 97.4604 9.50576 97.2625 9.78374C97.0675 10.0617 96.9346 10.4085 96.8668 10.8241C96.7989 11.2397 96.765 11.7104 96.765 12.2333C96.765 12.6379 96.7791 13.037 96.8074 13.4305C96.8357 13.8241 96.9318 14.1736 97.0929 14.4792C97.2569 14.7847 97.5085 15.0324 97.8505 15.2168C98.1926 15.4039 98.6844 15.4948 99.3233 15.4948L101.328 15.3461L101.361 16.2489C100.822 16.3259 100.361 16.3837 99.9735 16.4195C99.5862 16.458 99.2639 16.4773 99.0067 16.4773C98.3678 16.4773 97.8307 16.3975 97.3982 16.2406C96.9657 16.081 96.618 15.8305 96.3551 15.4865C96.0922 15.1424 95.9028 14.6993 95.7897 14.1599C95.6767 13.6177 95.6201 12.9654 95.6201 12.2002V12.203Z" fill="#59595C"/>
<path d="M103.382 4.49976H104.493V8.58141C105.435 8.16582 106.334 7.95939 107.187 7.95939C107.781 7.95939 108.261 8.05297 108.626 8.23738C108.991 8.42453 109.273 8.68876 109.477 9.03279C109.678 9.37683 109.816 9.79792 109.89 10.2961C109.963 10.7943 110 11.3585 110 11.9915V16.3016H108.889V12.0245C108.889 11.631 108.875 11.2456 108.847 10.8686C108.818 10.4915 108.745 10.1585 108.629 9.86949C108.51 9.5805 108.329 9.3438 108.081 9.1649C107.835 8.98325 107.493 8.89518 107.054 8.89518C106.862 8.89518 106.653 8.91169 106.424 8.94472C106.195 8.97775 105.963 9.02178 105.734 9.07682C105.505 9.13187 105.279 9.18967 105.061 9.25022C104.844 9.31077 104.654 9.37407 104.496 9.43737V16.3071H103.385V4.50527L103.382 4.49976Z" fill="#59595C"/>
<path d="M55.7632 28.0995C55.5691 28.0995 55.3329 28.083 55.0602 28.0501C54.7874 28.0171 54.4499 27.9704 54.0506 27.9154L54.1209 27.3824C54.4781 27.4291 54.7902 27.462 55.0573 27.4868C55.3217 27.5088 55.5382 27.5225 55.7013 27.5225C56.1006 27.5225 56.3959 27.4373 56.5843 27.2642C56.7727 27.0911 56.8683 26.8355 56.8683 26.4976C56.8683 26.3382 56.8374 26.2091 56.7727 26.1074C56.7109 26.0057 56.6265 25.9233 56.5196 25.8574C56.4156 25.7914 56.289 25.7392 56.1456 25.698C55.9994 25.6595 55.8447 25.621 55.676 25.5853C55.4342 25.5276 55.2092 25.4644 55.0039 25.3875C54.7986 25.3133 54.6215 25.2171 54.4724 25.099C54.3234 24.9808 54.2053 24.8352 54.1237 24.6621C54.0422 24.489 54 24.2774 54 24.0246C54 23.0794 54.6046 22.604 55.8166 22.604C56.0163 22.604 56.2469 22.6177 56.5112 22.6425C56.7755 22.6672 57.0792 22.7084 57.4279 22.7661L57.3717 23.3129C57.0399 23.2717 56.7418 23.2387 56.4803 23.2167C56.2159 23.1948 55.9938 23.181 55.8082 23.181C55.0545 23.181 54.6805 23.4503 54.6805 23.9916C54.6805 24.162 54.7199 24.3021 54.7958 24.412C54.8717 24.5219 54.973 24.6154 55.0995 24.6896C55.2261 24.7637 55.3695 24.8242 55.5326 24.8709C55.6957 24.9176 55.8672 24.9643 56.0444 25.0083C56.2272 25.055 56.41 25.1127 56.5899 25.1786C56.7699 25.2446 56.9274 25.3325 57.068 25.4397C57.2086 25.5469 57.3211 25.6842 57.4083 25.8491C57.4954 26.014 57.5376 26.2173 57.5376 26.4591C57.5376 27.0032 57.3886 27.4126 57.0905 27.6846C56.7924 27.9566 56.3509 28.094 55.7604 28.094L55.7632 28.0995Z" fill="#929497"/>
<path d="M58.7725 24.173H59.4192V24.4203C59.6189 24.3076 59.8101 24.2225 59.9957 24.1703C60.1785 24.1153 60.3725 24.0906 60.5722 24.0906C61.0306 24.0906 61.3596 24.2197 61.5592 24.4753C61.7814 24.3516 62.0232 24.2582 62.2904 24.1895C62.5547 24.1235 62.7994 24.0906 63.0215 24.0906C63.2859 24.0906 63.4996 24.14 63.6655 24.2362C63.8314 24.3351 63.9608 24.467 64.0564 24.6374C64.152 24.8077 64.2167 25.0056 64.2504 25.2336C64.2842 25.4617 64.301 25.709 64.301 25.97V28.0144H63.6458V25.9948C63.6458 25.8134 63.6402 25.6431 63.6261 25.4809C63.6121 25.3188 63.5783 25.1759 63.5249 25.0523C63.4715 24.9286 63.3871 24.8325 63.2803 24.7583C63.1734 24.6868 63.0272 24.6511 62.8416 24.6511C62.6841 24.6511 62.5097 24.6758 62.3213 24.728C62.1329 24.7802 61.9558 24.8434 61.7927 24.9204C61.8545 25.0138 61.8883 25.3793 61.8883 26.0167V28.0144H61.233V26.0332C61.233 25.8684 61.2302 25.7035 61.2218 25.5386C61.2134 25.3738 61.1852 25.2254 61.1402 25.0962C61.0953 24.9671 61.0193 24.8572 60.9181 24.7748C60.8169 24.6923 60.6763 24.6511 60.4907 24.6511C60.4119 24.6511 60.3247 24.6594 60.2291 24.6731C60.1335 24.6896 60.0407 24.7088 59.9451 24.7335C59.8495 24.7583 59.7595 24.7885 59.6695 24.8187C59.5795 24.8489 59.5008 24.8819 59.4333 24.9176V28.0116H58.7781V24.1703L58.7725 24.173Z" fill="#929497"/>
<path d="M65.3242 26.9185C65.3242 26.5421 65.4198 26.2645 65.611 26.0859C65.8023 25.9073 66.1144 25.7947 66.5475 25.7535L67.7398 25.6463V25.3303C67.7398 25.083 67.6864 24.9071 67.5767 24.7972C67.4698 24.6901 67.3124 24.6351 67.1071 24.6351C66.854 24.6351 66.5981 24.6434 66.3422 24.6626C66.0835 24.6818 65.8276 24.7038 65.5689 24.7285L65.5464 24.2587C66.12 24.1405 66.6318 24.0801 67.079 24.0801C67.5261 24.0801 67.8776 24.179 68.0857 24.3768C68.2938 24.5747 68.3978 24.8934 68.3978 25.3303V27.2592C68.3978 27.4406 68.5412 27.5532 68.8253 27.6L68.8028 28.1083C68.5806 28.1083 68.395 28.0808 68.2432 28.0286C68.0913 27.9736 67.9535 27.8967 67.8326 27.7923C67.3742 28.0039 66.9159 28.1083 66.4603 28.1083C66.0807 28.1083 65.7995 28.0066 65.611 27.8005C65.4255 27.5945 65.3298 27.3032 65.3298 26.9213L65.3242 26.9185ZM66.5728 27.5587C66.8934 27.5587 67.2224 27.5038 67.5598 27.3966L67.7426 27.3417V26.1162L66.629 26.2233C66.4012 26.2453 66.2381 26.3085 66.1397 26.4157C66.0385 26.5228 65.9907 26.685 65.9907 26.902C65.9907 27.3389 66.1847 27.5587 66.5756 27.5587H66.5728Z" fill="#929497"/>
<path d="M69.7759 24.1653H70.4227V24.6736C70.8642 24.3768 71.3394 24.1762 71.8428 24.0801V24.7285C71.7415 24.745 71.6319 24.7698 71.5109 24.8055C71.39 24.8412 71.2663 24.8824 71.1397 24.9291C71.0132 24.9759 70.8895 25.0253 70.7657 25.0748C70.642 25.127 70.5295 25.1764 70.4311 25.2204V28.0204H69.7759V24.1625V24.1653Z" fill="#929497"/>
<path d="M74.1824 28.1082C73.9771 28.1082 73.8056 28.0862 73.6706 28.0395C73.5328 27.9928 73.4231 27.9158 73.3388 27.8087C73.2544 27.7015 73.1954 27.5559 73.156 27.3773C73.1194 27.1987 73.0997 26.9734 73.0997 26.7068V24.7175H72.5542V24.1707H73.0997V23.0056H73.755V24.1707H74.9642V24.7175H73.755V26.6079C73.755 26.7508 73.7578 26.8827 73.7662 27.0008C73.7746 27.119 73.7943 27.2179 73.8281 27.2976C73.8618 27.3773 73.9153 27.4377 73.9912 27.4817C74.0643 27.5257 74.1655 27.5476 74.2921 27.5476L74.9782 27.5092L75.0092 28.0175C74.8151 28.0532 74.6548 28.078 74.5283 28.0917C74.4017 28.1055 74.2864 28.1109 74.1796 28.1109L74.1824 28.1082Z" fill="#929497"/>
<path d="M79.0669 28.0995C78.8729 28.0995 78.6366 28.083 78.3639 28.0501C78.0911 28.0171 77.7536 27.9704 77.3543 27.9154L77.4246 27.3824C77.7818 27.4291 78.0939 27.462 78.3611 27.4868C78.6254 27.5088 78.8419 27.5225 79.005 27.5225C79.4043 27.5225 79.6996 27.4373 79.888 27.2642C80.0764 27.0911 80.172 26.8355 80.172 26.4976C80.172 26.3382 80.1411 26.2091 80.0764 26.1074C80.0146 26.0057 79.9302 25.9233 79.8233 25.8574C79.7193 25.7914 79.5928 25.7392 79.4493 25.698C79.3031 25.6595 79.1484 25.621 78.9797 25.5853C78.7379 25.5276 78.5129 25.4644 78.3076 25.3875C78.1023 25.3133 77.9252 25.2171 77.7761 25.099C77.6271 24.9808 77.509 24.8352 77.4274 24.6621C77.3459 24.489 77.3037 24.2774 77.3037 24.0246C77.3037 23.0794 77.9083 22.604 79.1203 22.604C79.32 22.604 79.5506 22.6177 79.8149 22.6425C80.0792 22.6672 80.383 22.7084 80.7317 22.7661L80.6754 23.3129C80.3436 23.2717 80.0455 23.2387 79.784 23.2167C79.5196 23.1948 79.2975 23.181 79.1119 23.181C78.3582 23.181 77.9842 23.4503 77.9842 23.9916C77.9842 24.162 78.0236 24.3021 78.0995 24.412C78.1755 24.5219 78.2767 24.6154 78.4032 24.6896C78.5298 24.7637 78.6732 24.8242 78.8363 24.8709C78.9994 24.9176 79.1709 24.9643 79.3481 25.0083C79.5309 25.055 79.7137 25.1127 79.8936 25.1786C80.0736 25.2446 80.2311 25.3325 80.3717 25.4397C80.5123 25.5469 80.6248 25.6842 80.712 25.8491C80.7991 26.014 80.8413 26.2173 80.8413 26.4591C80.8413 27.0032 80.6923 27.4126 80.3942 27.6846C80.0961 27.9566 79.6546 28.094 79.0641 28.094L79.0669 28.0995Z" fill="#929497"/>
<path d="M81.9971 26.1162C81.9971 25.8277 82.0252 25.5611 82.0842 25.3138C82.1433 25.0665 82.2361 24.8522 82.3683 24.6709C82.5004 24.4895 82.6748 24.3439 82.8941 24.2395C83.1135 24.135 83.3834 24.0801 83.704 24.0801C84.0246 24.0801 84.2692 24.1268 84.4858 24.223C84.7023 24.3191 84.8766 24.4538 85.0144 24.6324C85.1522 24.811 85.2507 25.0226 85.3153 25.2726C85.3772 25.5227 85.4109 25.8002 85.4109 26.1107C85.4109 26.3992 85.3828 26.6657 85.3238 26.9103C85.2647 27.1548 85.1691 27.3664 85.0369 27.5423C84.902 27.7209 84.7276 27.8582 84.5083 27.9599C84.2889 28.0588 84.019 28.111 83.6984 28.111C83.3975 28.111 83.1416 28.0671 82.9279 27.9764C82.7142 27.8857 82.537 27.7566 82.3992 27.5862C82.2586 27.4159 82.1574 27.207 82.0955 26.9625C82.0336 26.7179 81.9999 26.4349 81.9999 26.1217L81.9971 26.1162ZM82.6692 26.1079C82.6692 26.314 82.6832 26.5064 82.7085 26.6822C82.7338 26.8608 82.7873 27.0119 82.8632 27.1411C82.9391 27.2702 83.046 27.3691 83.1838 27.4406C83.3216 27.512 83.4959 27.5477 83.7124 27.5477C83.9121 27.5477 84.078 27.5148 84.2102 27.4516C84.3424 27.3884 84.4464 27.2922 84.5251 27.1658C84.6039 27.0394 84.6601 26.8855 84.6911 26.7069C84.722 26.5283 84.7389 26.3222 84.7389 26.0887C84.7389 25.8936 84.7248 25.7068 84.6995 25.5282C84.6742 25.3495 84.6208 25.1957 84.5448 25.061C84.4689 24.9264 84.362 24.822 84.2299 24.745C84.0949 24.6681 83.9177 24.6296 83.6984 24.6296C83.4931 24.6296 83.3244 24.6626 83.1922 24.7285C83.06 24.7945 82.956 24.8934 82.8801 25.0226C82.8041 25.1517 82.7507 25.3056 82.717 25.4897C82.6832 25.6738 82.6692 25.8771 82.6692 26.1024V26.1079Z" fill="#929497"/>
<path d="M86.6538 22.5H87.309V28.023H86.6538V22.5Z" fill="#929497"/>
<path d="M89.9076 28.1087C89.6236 28.1087 89.3958 28.062 89.2215 27.9714C89.0471 27.8807 88.915 27.7488 88.8194 27.5784C88.7237 27.4081 88.6591 27.2075 88.6253 26.9739C88.5916 26.7404 88.5747 26.4821 88.5747 26.1991V24.1794H89.2299V26.1936C89.2299 26.3749 89.2327 26.5453 89.2412 26.7101C89.2496 26.875 89.2805 27.0179 89.3312 27.1415C89.3818 27.2652 89.4661 27.3641 89.5786 27.4383C89.6911 27.5125 89.8514 27.5509 90.0567 27.5509C90.3519 27.5509 90.6838 27.4603 91.0522 27.2817V24.1794H91.7074V28.0291H91.0522V27.7735C90.83 27.8917 90.636 27.9768 90.4644 28.0318C90.2929 28.0868 90.1073 28.1115 89.9076 28.1115V28.1087Z" fill="#929497"/>
<path d="M94.3284 28.1082C94.1231 28.1082 93.9516 28.0862 93.8166 28.0395C93.6788 27.9928 93.5691 27.9158 93.4848 27.8087C93.4004 27.7015 93.3413 27.5559 93.302 27.3773C93.2654 27.1987 93.2457 26.9734 93.2457 26.7068V24.7175H92.7002V24.1707H93.2457V23.0056H93.901V24.1707H95.1102V24.7175H93.901V26.6079C93.901 26.7508 93.9038 26.8827 93.9122 27.0008C93.9206 27.119 93.9403 27.2179 93.9741 27.2976C94.0078 27.3773 94.0612 27.4377 94.1372 27.4817C94.2103 27.5257 94.3115 27.5476 94.4381 27.5476L95.1242 27.5092L95.1551 28.0175C94.9611 28.0532 94.8008 28.078 94.6743 28.0917C94.5477 28.1055 94.4324 28.1109 94.3256 28.1109L94.3284 28.1082Z" fill="#929497"/>
<path d="M96.1899 22.5935H96.8452V23.3107H96.1899V22.5935ZM96.1899 24.168H96.8452V28.0258H96.1899V24.168Z" fill="#929497"/>
<path d="M98.0542 26.1162C98.0542 25.8277 98.0823 25.5611 98.1414 25.3138C98.2004 25.0665 98.2932 24.8522 98.4254 24.6709C98.5576 24.4895 98.7319 24.3439 98.9513 24.2395C99.1706 24.135 99.4406 24.0801 99.7611 24.0801C100.082 24.0801 100.326 24.1268 100.543 24.223C100.759 24.3191 100.934 24.4538 101.072 24.6324C101.209 24.811 101.308 25.0226 101.372 25.2726C101.434 25.5227 101.468 25.8002 101.468 26.1107C101.468 26.3992 101.44 26.6657 101.381 26.9103C101.322 27.1548 101.226 27.3664 101.094 27.5423C100.959 27.7209 100.785 27.8582 100.565 27.9599C100.346 28.0588 100.076 28.111 99.7555 28.111C99.4546 28.111 99.1987 28.0671 98.985 27.9764C98.7713 27.8857 98.5941 27.7566 98.4563 27.5862C98.3157 27.4159 98.2145 27.207 98.1526 26.9625C98.0908 26.7179 98.057 26.4349 98.057 26.1217L98.0542 26.1162ZM98.7263 26.1079C98.7263 26.314 98.7403 26.5064 98.7657 26.6822C98.791 26.8608 98.8444 27.0119 98.9203 27.1411C98.9963 27.2702 99.1031 27.3691 99.2409 27.4406C99.3787 27.512 99.553 27.5477 99.7696 27.5477C99.9692 27.5477 100.135 27.5148 100.267 27.4516C100.399 27.3884 100.504 27.2922 100.582 27.1658C100.661 27.0394 100.717 26.8855 100.748 26.7069C100.779 26.5283 100.796 26.3222 100.796 26.0887C100.796 25.8936 100.782 25.7068 100.757 25.5282C100.731 25.3495 100.678 25.1957 100.602 25.061C100.526 24.9264 100.419 24.822 100.287 24.745C100.152 24.6681 99.9749 24.6296 99.7555 24.6296C99.5502 24.6296 99.3815 24.6626 99.2493 24.7285C99.1172 24.7945 99.0131 24.8934 98.9372 25.0226C98.8613 25.1517 98.8078 25.3056 98.7741 25.4897C98.7403 25.6738 98.7263 25.8771 98.7263 26.1024V26.1079Z" fill="#929497"/>
<path d="M102.672 24.1731H103.319V24.4204C103.549 24.3022 103.76 24.217 103.946 24.1648C104.131 24.1126 104.32 24.0879 104.511 24.0879C104.784 24.0879 105.009 24.1319 105.183 24.2225C105.357 24.3132 105.492 24.4396 105.594 24.6017C105.692 24.7638 105.762 24.9617 105.799 25.1925C105.835 25.4233 105.855 25.6843 105.855 25.9728V28.0172H105.2V25.9976C105.2 25.8272 105.192 25.6623 105.177 25.503C105.163 25.3436 105.127 25.2007 105.071 25.0743C105.014 24.9479 104.936 24.8463 104.829 24.7693C104.725 24.6924 104.578 24.6539 104.396 24.6539C104.311 24.6539 104.219 24.6622 104.12 24.6759C104.019 24.6924 103.923 24.7144 103.828 24.7419C103.732 24.7693 103.642 24.7995 103.555 24.8298C103.468 24.86 103.392 24.8902 103.33 24.9232V28.0172H102.675V24.1758L102.672 24.1731Z" fill="#929497"/>
<path d="M108.481 28.1079C108.245 28.1079 108.006 28.0914 107.767 28.0584C107.528 28.0254 107.292 27.9869 107.061 27.9457L107.092 27.4044C107.399 27.4456 107.666 27.4814 107.894 27.5088C108.121 27.5363 108.321 27.5528 108.49 27.5528C108.774 27.5528 108.987 27.5088 109.134 27.4182C109.277 27.3275 109.35 27.1764 109.35 26.9593C109.35 26.8521 109.319 26.7614 109.255 26.6845C109.19 26.6076 109.108 26.5471 109.007 26.4949C108.906 26.4427 108.788 26.4015 108.658 26.3685C108.529 26.3356 108.402 26.3081 108.276 26.2888C108.065 26.2531 107.879 26.2091 107.719 26.1569C107.559 26.1047 107.427 26.0388 107.32 25.9564C107.216 25.8739 107.134 25.7723 107.084 25.6514C107.03 25.5305 107.005 25.3848 107.005 25.2145C107.005 24.8243 107.134 24.5385 107.396 24.3572C107.657 24.1758 108.028 24.0879 108.512 24.0879C108.729 24.0879 108.954 24.1044 109.19 24.1346C109.426 24.1648 109.657 24.2005 109.876 24.2418L109.859 24.7803C109.606 24.7446 109.367 24.7116 109.136 24.6841C108.909 24.6567 108.698 24.6402 108.509 24.6402C108.214 24.6402 107.998 24.6842 107.863 24.7721C107.725 24.86 107.657 24.9919 107.657 25.1732C107.657 25.2557 107.671 25.3271 107.699 25.3848C107.728 25.4453 107.778 25.4975 107.849 25.5442C107.919 25.5909 108.012 25.6321 108.124 25.6678C108.237 25.7036 108.377 25.7365 108.546 25.7668C108.698 25.797 108.861 25.8355 109.032 25.8822C109.204 25.9289 109.361 25.9921 109.502 26.0718C109.643 26.1514 109.764 26.2559 109.856 26.3878C109.952 26.5197 110 26.6845 110 26.8851C110 27.3083 109.876 27.616 109.631 27.8111C109.387 28.0062 109.001 28.1051 108.476 28.1051L108.481 28.1079Z" fill="#929497"/>
<path d="M56.1034 30.4658C56.5027 30.4658 56.8346 30.5373 57.0989 30.6829C57.3632 30.8258 57.5713 31.0181 57.726 31.2572C57.8807 31.4962 57.9903 31.7683 58.055 32.076C58.1169 32.381 58.1506 32.697 58.1506 33.0212C58.1506 33.9362 57.9847 34.6287 57.6501 35.0958C57.3154 35.5629 56.8008 35.7965 56.1062 35.7965H54.1631V30.4658H56.1062H56.1034ZM56.1034 35.2167C56.3453 35.2167 56.5534 35.1617 56.7221 35.0518C56.8936 34.9419 57.0342 34.7908 57.1439 34.5957C57.2536 34.4034 57.3351 34.1725 57.3886 33.9005C57.442 33.6312 57.4673 33.34 57.4673 33.024C57.4673 32.3755 57.3604 31.8837 57.1439 31.5457C56.9274 31.2077 56.5815 31.0401 56.1006 31.0401H54.838V35.2139H56.1006L56.1034 35.2167Z" fill="#929497"/>
<path d="M60.2401 33.9141C60.2401 33.2244 60.3751 32.7106 60.6479 32.3671C60.9178 32.0236 61.3425 31.8533 61.9161 31.8533C62.4532 31.8533 62.8582 32.0016 63.1366 32.2957C63.4122 32.5924 63.5387 33.043 63.5106 33.6503L63.4712 34.0982H60.8981C60.8981 34.318 60.9178 34.5076 60.9572 34.6615C60.9966 34.8153 61.0584 34.9417 61.1456 35.0407C61.2328 35.1396 61.3481 35.2083 61.4915 35.2522C61.6349 35.2962 61.8205 35.3182 62.0399 35.3182C62.1973 35.3182 62.3745 35.3182 62.5685 35.3099C62.7626 35.3044 62.9482 35.2935 63.1197 35.2797L63.3559 35.2577L63.3728 35.7358C62.8104 35.8348 62.3211 35.8815 61.9049 35.8815C61.5984 35.8815 61.3396 35.8375 61.1259 35.7468C60.9122 35.6562 60.7407 35.5298 60.6085 35.3621C60.4763 35.1945 60.3835 34.9884 60.3245 34.7439C60.2654 34.4993 60.2373 34.2246 60.2373 33.9141H60.2401ZM60.8869 33.6283H62.8525C62.8525 33.1859 62.7794 32.8727 62.6304 32.6831C62.4842 32.4962 62.2423 32.4028 61.9133 32.4028C61.5843 32.4028 61.3087 32.499 61.1428 32.6913C60.9769 32.8837 60.8925 33.1969 60.8869 33.6283Z" fill="#929497"/>
<path d="M65.2539 31.9382H65.9401L66.823 35.2465H67.1155L68.0323 31.9382H68.7043L67.6076 35.7961H66.345L65.2567 31.9382H65.2539Z" fill="#929497"/>
<path d="M70.5741 33.9141C70.5741 33.2244 70.7091 32.7106 70.9819 32.3671C71.2518 32.0236 71.6764 31.8533 72.2501 31.8533C72.7872 31.8533 73.1922 32.0016 73.4706 32.2957C73.7461 32.5924 73.8727 33.043 73.8446 33.6503L73.8052 34.0982H71.2321C71.2321 34.318 71.2518 34.5076 71.2912 34.6615C71.3306 34.8153 71.3924 34.9417 71.4796 35.0407C71.5668 35.1396 71.6821 35.2083 71.8255 35.2522C71.9689 35.2962 72.1545 35.3182 72.3738 35.3182C72.5313 35.3182 72.7085 35.3182 72.9025 35.3099C73.0965 35.3044 73.2821 35.2935 73.4537 35.2797L73.6899 35.2577L73.7068 35.7358C73.1444 35.8348 72.655 35.8815 72.2389 35.8815C71.9323 35.8815 71.6736 35.8375 71.4599 35.7468C71.2462 35.6562 71.0747 35.5298 70.9425 35.3621C70.8103 35.1945 70.7175 34.9884 70.6585 34.7439C70.5994 34.4993 70.5713 34.2246 70.5713 33.9141H70.5741ZM71.2209 33.6283H73.1865C73.1865 33.1859 73.1134 32.8727 72.9644 32.6831C72.8181 32.4962 72.5763 32.4028 72.2473 32.4028C71.9183 32.4028 71.6427 32.499 71.4768 32.6913C71.3109 32.8837 71.2265 33.1969 71.2209 33.6283Z" fill="#929497"/>
<path d="M75.9033 30.2732H76.5585V35.7962H75.9033V30.2732Z" fill="#929497"/>
<path d="M78.7295 33.8923C78.7295 33.6038 78.7576 33.3373 78.8167 33.09C78.8757 32.8427 78.9685 32.6283 79.1007 32.447C79.2329 32.2656 79.4072 32.12 79.6266 32.0156C79.8459 31.9112 80.1159 31.8562 80.4364 31.8562C80.757 31.8562 81.0017 31.9029 81.2182 31.9991C81.4347 32.0953 81.6091 32.2299 81.7469 32.4085C81.8847 32.5871 81.9831 32.7987 82.0478 33.0487C82.1096 33.2988 82.1434 33.5763 82.1434 33.8868C82.1434 34.1753 82.1153 34.4419 82.0562 34.6864C81.9971 34.931 81.9015 35.1425 81.7694 35.3184C81.6344 35.497 81.46 35.6344 81.2407 35.736C81.0214 35.8349 80.7514 35.8872 80.4308 35.8872C80.1299 35.8872 79.874 35.8432 79.6603 35.7525C79.4466 35.6618 79.2694 35.5327 79.1316 35.3623C78.991 35.192 78.8898 34.9832 78.8279 34.7386C78.7661 34.4941 78.7323 34.211 78.7323 33.8978L78.7295 33.8923ZM79.4016 33.884C79.4016 34.0901 79.4156 34.2825 79.441 34.4583C79.4663 34.6369 79.5197 34.7881 79.5956 34.9172C79.6715 35.0463 79.7784 35.1453 79.9162 35.2167C80.054 35.2882 80.2283 35.3239 80.4449 35.3239C80.6445 35.3239 80.8104 35.2909 80.9426 35.2277C81.0748 35.1645 81.1788 35.0683 81.2576 34.9419C81.3363 34.8155 81.3925 34.6617 81.4235 34.4831C81.4544 34.3045 81.4713 34.0984 81.4713 33.8648C81.4713 33.6697 81.4572 33.4829 81.4319 33.3043C81.4066 33.1257 81.3532 32.9718 81.2773 32.8372C81.2013 32.7025 81.0945 32.5981 80.9623 32.5212C80.8273 32.4442 80.6502 32.4058 80.4308 32.4058C80.2255 32.4058 80.0568 32.4387 79.9246 32.5047C79.7925 32.5706 79.6884 32.6695 79.6125 32.7987C79.5366 32.9278 79.4831 33.0817 79.4494 33.2658C79.4157 33.4499 79.4016 33.6532 79.4016 33.8786V33.884Z" fill="#929497"/>
<path d="M84.2695 37.5001V31.9386H84.9163V32.2024C85.1272 32.0788 85.3269 31.9909 85.5125 31.9359C85.6981 31.8809 85.8921 31.8562 86.0918 31.8562C86.5811 31.8562 86.9382 32.0128 87.166 32.3261C87.3909 32.6393 87.5063 33.1477 87.5063 33.8456C87.5063 34.2165 87.4753 34.5298 87.4106 34.7853C87.3488 35.0436 87.2475 35.2524 87.1097 35.4145C86.972 35.5767 86.7948 35.6948 86.5726 35.769C86.3505 35.8432 86.0833 35.8817 85.7684 35.8817C85.4844 35.8817 85.2031 35.8514 84.9247 35.7882V37.5001H84.2695ZM84.9247 35.2469C85.1075 35.2717 85.2706 35.2909 85.4112 35.3046C85.5518 35.3184 85.67 35.3239 85.7712 35.3239C86.1593 35.3239 86.4377 35.2112 86.6008 34.9831C86.7639 34.7578 86.8454 34.3841 86.8454 33.8648C86.8454 33.3455 86.7751 32.9745 86.6373 32.7492C86.4967 32.5267 86.2914 32.414 86.0187 32.414C85.9343 32.414 85.8415 32.4223 85.7431 32.436C85.6418 32.4525 85.5434 32.4745 85.4478 32.5019C85.3494 32.5294 85.2566 32.5624 85.1638 32.5953C85.071 32.6283 84.9951 32.664 84.9304 32.6998V35.2442L84.9247 35.2469Z" fill="#929497"/>
<path d="M89.5195 31.9472H90.1663V32.1945C90.366 32.0818 90.5572 31.9966 90.7428 31.9444C90.9256 31.8895 91.1196 31.8647 91.3193 31.8647C91.7776 31.8647 92.1066 31.9939 92.3063 32.2494C92.5285 32.1258 92.7703 32.0324 93.0375 31.9637C93.3018 31.8977 93.5464 31.8647 93.7686 31.8647C94.0329 31.8647 94.2467 31.9142 94.4126 32.0104C94.5785 32.1093 94.7078 32.2412 94.8034 32.4115C94.8991 32.5819 94.9637 32.7797 94.9975 33.0078C95.0312 33.2359 95.0481 33.4832 95.0481 33.7442V35.7885H94.3929V33.7689C94.3929 33.5876 94.3873 33.4172 94.3732 33.2551C94.3591 33.093 94.3254 32.9501 94.272 32.8265C94.2185 32.7028 94.1342 32.6066 94.0273 32.5324C93.9205 32.461 93.7742 32.4253 93.5886 32.4253C93.4312 32.4253 93.2568 32.45 93.0684 32.5022C92.88 32.5544 92.7028 32.6176 92.5397 32.6946C92.6016 32.788 92.6353 33.1534 92.6353 33.7909V35.7885H91.9801V33.8074C91.9801 33.6425 91.9773 33.4777 91.9689 33.3128C91.9604 33.148 91.9323 32.9996 91.8873 32.8704C91.8423 32.7413 91.7664 32.6314 91.6652 32.5489C91.5639 32.4665 91.4233 32.4253 91.2377 32.4253C91.159 32.4253 91.0718 32.4335 90.9762 32.4473C90.8806 32.4638 90.7878 32.483 90.6922 32.5077C90.5966 32.5324 90.5066 32.5627 90.4166 32.5929C90.3266 32.6231 90.2479 32.6561 90.1804 32.6918V35.7858H89.5252V31.9444L89.5195 31.9472Z" fill="#929497"/>
<path d="M97.1288 33.9141C97.1288 33.2244 97.2638 32.7106 97.5365 32.3671C97.8065 32.0236 98.2311 31.8533 98.8048 31.8533C99.3419 31.8533 99.7468 32.0016 100.025 32.2957C100.301 32.5924 100.427 33.043 100.399 33.6503L100.36 34.0982H97.7868C97.7868 34.318 97.8065 34.5076 97.8459 34.6615C97.8852 34.8153 97.9471 34.9417 98.0343 35.0407C98.1215 35.1396 98.2368 35.2083 98.3802 35.2522C98.5236 35.2962 98.7092 35.3182 98.9285 35.3182C99.086 35.3182 99.2632 35.3182 99.4572 35.3099C99.6512 35.3044 99.8368 35.2935 100.008 35.2797L100.245 35.2577L100.261 35.7358C99.699 35.8348 99.2097 35.8815 98.7935 35.8815C98.487 35.8815 98.2283 35.8375 98.0146 35.7468C97.8009 35.6562 97.6293 35.5298 97.4972 35.3621C97.365 35.1945 97.2722 34.9884 97.2132 34.7439C97.1541 34.4993 97.126 34.2246 97.126 33.9141H97.1288ZM97.7756 33.6283H99.7412C99.7412 33.1859 99.6681 32.8727 99.5191 32.6831C99.3728 32.4962 99.131 32.4028 98.802 32.4028C98.473 32.4028 98.1974 32.499 98.0315 32.6913C97.8656 32.8837 97.7812 33.1969 97.7756 33.6283Z" fill="#929497"/>
<path d="M102.418 31.947H103.065V32.1943C103.296 32.0761 103.507 31.991 103.692 31.9388C103.878 31.8866 104.066 31.8618 104.258 31.8618C104.53 31.8618 104.755 31.9058 104.93 31.9965C105.104 32.0871 105.239 32.2135 105.34 32.3756C105.439 32.5378 105.509 32.7356 105.546 32.9664C105.582 33.1972 105.602 33.4583 105.602 33.7468V35.7911H104.947V33.7715C104.947 33.6011 104.938 33.4363 104.924 33.2769C104.91 33.1175 104.873 32.9747 104.817 32.8483C104.761 32.7219 104.682 32.6202 104.575 32.5433C104.471 32.4663 104.325 32.4279 104.142 32.4279C104.058 32.4279 103.965 32.4361 103.867 32.4498C103.765 32.4663 103.67 32.4883 103.574 32.5158C103.479 32.5433 103.389 32.5735 103.301 32.6037C103.214 32.6339 103.138 32.6642 103.076 32.6971V35.7911H102.421V31.9497L102.418 31.947Z" fill="#929497"/>
<path d="M109.106 35.8814C108.9 35.8814 108.729 35.8594 108.594 35.8127C108.456 35.766 108.346 35.689 108.262 35.5819C108.178 35.4747 108.119 35.3291 108.079 35.1505C108.043 34.9719 108.023 34.7466 108.023 34.48V32.4907H107.478V31.9439H108.023V30.7788H108.678V31.9439H109.888V32.4907H108.678V34.3811C108.678 34.524 108.681 34.6559 108.69 34.774C108.698 34.8922 108.718 34.9911 108.751 35.0708C108.785 35.1505 108.839 35.2109 108.915 35.2549C108.988 35.2989 109.089 35.3209 109.215 35.3209L109.902 35.2824L109.932 35.7907C109.738 35.8264 109.578 35.8512 109.452 35.8649C109.325 35.8786 109.21 35.8841 109.103 35.8841L109.106 35.8814Z" fill="#929497"/>
<defs>
<linearGradient id="paint0_linear_1955_27225" x1="25.199" y1="16.9197" x2="0" y2="16.9197" gradientUnits="userSpaceOnUse">
<stop stop-color="white" stop-opacity="0"/>
<stop offset="0.95" stop-color="#F09526"/>
</linearGradient>
<linearGradient id="paint1_linear_1955_27225" x1="34.6558" y1="12.7462" x2="8.06641" y2="12.7462" gradientUnits="userSpaceOnUse">
<stop stop-color="white" stop-opacity="0"/>
<stop offset="0.24" stop-color="#FACBC6" stop-opacity="0.29"/>
<stop offset="0.51" stop-color="#F5958C" stop-opacity="0.59"/>
<stop offset="0.74" stop-color="#F16E62" stop-opacity="0.81"/>
<stop offset="0.91" stop-color="#EF5647" stop-opacity="0.95"/>
<stop offset="1" stop-color="#EF4D3E"/>
</linearGradient>
<linearGradient id="paint2_linear_1955_27225" x1="25.2017" y1="21.0323" x2="42.0002" y2="21.0323" gradientUnits="userSpaceOnUse">
<stop stop-color="white" stop-opacity="0"/>
<stop offset="0.11" stop-color="#DCEDF7" stop-opacity="0.16"/>
<stop offset="0.39" stop-color="#8FC5E5" stop-opacity="0.52"/>
<stop offset="0.62" stop-color="#56A8D8" stop-opacity="0.78"/>
<stop offset="0.8" stop-color="#3396D0" stop-opacity="0.94"/>
<stop offset="0.89" stop-color="#2690CD"/>
</linearGradient>
<linearGradient id="paint3_linear_1955_27225" x1="41.9998" y1="29.2481" x2="16.8008" y2="29.2481" gradientUnits="userSpaceOnUse">
<stop stop-color="white" stop-opacity="0"/>
<stop offset="0.9" stop-color="#43B98D"/>
</linearGradient>
<linearGradient id="paint4_linear_1955_27225" x1="42" y1="33.3696" x2="0.00251826" y2="33.3696" gradientUnits="userSpaceOnUse">
<stop stop-color="white" stop-opacity="0"/>
<stop offset="0.93" stop-color="#65499C"/>
</linearGradient>
<linearGradient id="paint5_linear_1955_27225" x1="34.6562" y1="16.851" x2="16.7142" y2="16.851" gradientUnits="userSpaceOnUse">
<stop stop-color="white" stop-opacity="0"/>
<stop offset="1" stop-color="white"/>
</linearGradient>
<linearGradient id="paint6_linear_1955_27225" x1="34.6562" y1="16.851" x2="16.7142" y2="16.851" gradientUnits="userSpaceOnUse">
<stop stop-color="white" stop-opacity="0"/>
<stop offset="1" stop-color="white"/>
</linearGradient>
</defs>
</svg>
