<svg width="114" height="42" viewBox="0 0 114 42" fill="none" xmlns="http://www.w3.org/2000/svg">
<path d="M23.0604 12.7468H2.13854C0.957456 12.7468 0 13.6938 0 14.8619V18.9775C0 20.1457 0.957456 21.0926 2.13854 21.0926H23.0604C24.2415 21.0926 25.199 20.1457 25.199 18.9775V14.8619C25.199 13.6938 24.2415 12.7468 23.0604 12.7468Z" fill="url(#paint0_linear_1955_26439)"/>
<path d="M32.5171 4.5H10.2048C9.02374 4.5 8.06628 5.44698 8.06628 6.61511V18.8772C8.06628 20.0453 9.02374 20.9923 10.2048 20.9923H32.5171C33.6982 20.9923 34.6557 20.0453 34.6557 18.8772V6.61511C34.6557 5.44698 33.6982 4.5 32.5171 4.5Z" fill="url(#paint1_linear_1955_26439)"/>
<path d="M39.8667 12.7239H27.3302C26.1533 12.7239 25.1992 13.6675 25.1992 14.8315V27.2306C25.1992 28.3946 26.1533 29.3383 27.3302 29.3383H39.8667C41.0436 29.3383 41.9977 28.3946 41.9977 27.2306V14.8315C41.9977 13.6675 41.0436 12.7239 39.8667 12.7239Z" fill="url(#paint2_linear_1955_26439)"/>
<path d="M39.8612 20.9919H18.9393C17.7582 20.9919 16.8008 21.9389 16.8008 23.107V35.3816C16.8008 36.5497 17.7582 37.4967 18.9393 37.4967H39.8612C41.0423 37.4967 41.9998 36.5497 41.9998 35.3816V23.107C41.9998 21.9389 41.0423 20.9919 39.8612 20.9919Z" fill="url(#paint3_linear_1955_26439)"/>
<path d="M39.8589 29.239H2.13854C0.957456 29.239 0 30.186 0 31.3541V35.385C0 36.5531 0.957456 37.5001 2.13854 37.5001H39.8589C41.04 37.5001 41.9975 36.5531 41.9975 35.385V31.3541C41.9975 30.186 41.04 29.239 39.8589 29.239Z" fill="url(#paint4_linear_1955_26439)"/>
<path d="M18.7419 20.9766L32.6285 20.9766C33.7484 20.9766 34.6562 20.0787 34.6562 18.9711V14.7284C34.6562 13.6208 33.7484 12.7229 32.6285 12.7229L18.7419 12.7229C17.622 12.7229 16.7142 13.6208 16.7142 14.7284V18.9711C16.7142 20.0787 17.622 20.9766 18.7419 20.9766Z" fill="url(#paint5_linear_1955_26439)"/>
<path d="M53.9998 4.93994H58.3107C59.5687 4.93994 60.4902 5.21516 61.081 5.76837C61.669 6.32158 61.9658 7.17479 61.9658 8.33351C61.9658 10.1473 61.2365 11.2565 59.7779 11.661L62.0846 16.3179H60.8718L58.633 11.8757H55.1305V16.3179H54.0026V4.94268L53.9998 4.93994ZM58.3277 10.8904C60.0012 10.8904 60.8351 10.0537 60.8351 8.38305C60.8351 6.71241 59.9927 5.92525 58.3107 5.92525H55.1277V10.8931H58.3277V10.8904Z" fill="#59595C"/>
<path d="M63.7666 14.0065C63.7666 13.2414 63.9645 12.6661 64.3631 12.2781C64.7617 11.89 65.3977 11.6533 66.274 11.5652L69.0528 11.3038V10.5661C69.0528 9.98817 68.9256 9.5643 68.674 9.29457C68.4224 9.02485 68.0663 8.89275 67.6055 8.89275C67.0542 8.89275 66.503 8.91751 65.9461 8.96705C65.3892 9.01659 64.8323 9.06889 64.2698 9.12393L64.2189 8.30375C65.4316 8.07531 66.5143 7.95972 67.4698 7.95972C68.4253 7.95972 69.0839 8.16338 69.5164 8.57347C69.9489 8.98357 70.1638 9.64688 70.1638 10.5661V14.8927C70.1638 15.0799 70.2571 15.2285 70.4408 15.3441C70.6246 15.4597 70.8818 15.545 71.2069 15.5973L71.156 16.4836C70.3023 16.4836 69.6521 16.2551 69.2026 15.7955C68.1935 16.2551 67.1588 16.4836 66.1044 16.4836C65.3298 16.4836 64.7475 16.2689 64.3546 15.8368C63.9617 15.4047 63.7666 14.7964 63.7666 14.0093V14.0065ZM66.2571 15.5478C66.65 15.5478 67.0429 15.512 67.4359 15.4405C67.8288 15.3689 68.2274 15.2698 68.6316 15.1377L69.0528 15.0056V12.1212L66.4097 12.3827C65.8698 12.4377 65.4853 12.5863 65.2564 12.834C65.0274 13.079 64.9115 13.4588 64.9115 13.9735C64.9115 15.0221 65.361 15.5478 66.2599 15.5478H66.2571Z" fill="#59595C"/>
<path d="M75.6196 16.4805C75.1249 16.4805 74.633 16.4502 74.1383 16.3897C73.6436 16.3291 73.1574 16.2548 72.674 16.1695L72.7418 15.253C73.3807 15.341 73.9433 15.4126 74.4267 15.4649C74.91 15.5199 75.3312 15.5475 75.6903 15.5475C76.3857 15.5475 76.903 15.4319 77.2394 15.2034C77.5758 14.975 77.7454 14.5979 77.7454 14.0722C77.7454 13.8108 77.6634 13.5878 77.5023 13.4089C77.3383 13.2273 77.1376 13.0786 76.8973 12.9575C76.657 12.8364 76.3941 12.7456 76.1143 12.6796C75.8344 12.6135 75.5744 12.564 75.3397 12.5309C74.8337 12.4429 74.404 12.341 74.0507 12.2282C73.6973 12.1126 73.4118 11.9722 73.1913 11.8016C72.9737 11.631 72.8125 11.4245 72.7108 11.1796C72.609 10.9346 72.5581 10.6401 72.5581 10.3016C72.5581 9.4704 72.8295 8.87591 73.3751 8.51536C73.9206 8.1548 74.715 7.97314 75.7581 7.97314C76.185 7.97314 76.6486 8.00066 77.1461 8.05571C77.6464 8.11076 78.1185 8.18232 78.568 8.26764L78.5341 9.18416C78.0394 9.11811 77.556 9.05481 77.0782 8.99701C76.6005 8.93646 76.1482 8.90618 75.7242 8.90618C75.0062 8.90618 74.4832 9.01627 74.1581 9.2337C73.833 9.45113 73.6691 9.77591 73.6691 10.1998C73.6691 10.5823 73.8217 10.8741 74.1242 11.0777C74.4267 11.2814 74.9722 11.4576 75.7581 11.6117C76.0606 11.6777 76.3913 11.7576 76.7503 11.8484C77.1093 11.942 77.4457 12.0741 77.7595 12.2502C78.0733 12.4264 78.3334 12.6493 78.5426 12.9218C78.7489 13.1943 78.8535 13.5383 78.8535 13.9539C78.8535 14.8401 78.5934 15.4814 78.0705 15.8805C77.5475 16.2796 76.7334 16.4777 75.6196 16.4777V16.4805Z" fill="#59595C"/>
<path d="M83.8173 16.4972C83.4018 16.4972 83.0512 16.4504 82.7657 16.3569C82.4802 16.2633 82.2484 16.1064 82.076 15.8807C81.9007 15.6578 81.7791 15.3523 81.7056 14.9697C81.6322 14.5871 81.5954 14.111 81.5954 13.544V9.05227H80.3657V8.11924H81.5954V5.57886H82.7064V8.11924H85.4512V9.05227H82.7064V13.2825C82.7064 13.6211 82.7148 13.9293 82.7318 14.2101C82.7488 14.4908 82.7996 14.7303 82.8845 14.9312C82.9693 15.1321 83.0965 15.289 83.2717 15.3991C83.447 15.5092 83.6845 15.5642 83.9869 15.5642L85.5191 15.4486L85.5869 16.3183C85.1827 16.3844 84.8406 16.4312 84.5608 16.4587C84.2809 16.4862 84.0322 16.5 83.8201 16.5L83.8173 16.4972Z" fill="#59595C"/>
<path d="M87.1023 12.2863C87.1023 10.8551 87.3821 9.77624 87.9447 9.04963C88.5072 8.32303 89.392 7.95972 90.6048 7.95972C91.727 7.95972 92.5807 8.27623 93.1631 8.90926C93.7454 9.54229 93.9998 10.5111 93.9207 11.8102L93.8698 12.6304H88.2132C88.2132 13.1671 88.2556 13.6184 88.3405 13.99C88.4253 14.3615 88.5666 14.6616 88.7701 14.8927C88.9708 15.1212 89.2422 15.2891 89.5786 15.3937C89.915 15.4983 90.3362 15.5506 90.8422 15.5506C91.1673 15.5506 91.5348 15.545 91.9447 15.534C92.3546 15.523 92.739 15.501 93.0981 15.468L93.6041 15.4184L93.638 16.2386C92.4479 16.4038 91.4274 16.4836 90.5737 16.4836C89.9235 16.4836 89.3751 16.3845 88.9313 16.1891C88.4874 15.9937 88.1313 15.7102 87.8627 15.3441C87.5942 14.9781 87.3991 14.535 87.2832 14.0175C87.1645 13.5001 87.1079 12.9221 87.1079 12.2891L87.1023 12.2863ZM88.1963 11.7937H92.8097C92.8097 10.756 92.6345 10.0129 92.2867 9.56431C91.939 9.11569 91.3765 8.89275 90.6019 8.89275C89.8274 8.89275 89.1913 9.12393 88.7927 9.58907C88.3942 10.0542 88.1963 10.7891 88.1963 11.7937Z" fill="#59595C"/>
<path d="M95.6196 12.203C95.6196 11.614 95.6762 11.0608 95.7892 10.5461C95.9023 10.0315 96.0861 9.58282 96.3461 9.19474C96.6034 8.80667 96.9369 8.50117 97.3468 8.27549C97.7567 8.05255 98.2656 7.9397 98.8705 7.9397C99.2634 7.9397 99.6592 7.96171 100.058 8.00575C100.456 8.04979 100.886 8.11035 101.347 8.18741L101.296 9.05713C101.262 9.05713 101.174 9.04888 101.036 9.03237C100.895 9.01585 100.731 8.99934 100.538 8.98283C100.346 8.96631 100.148 8.95255 99.9419 8.94154C99.7355 8.93053 99.5461 8.92502 99.3765 8.92502C98.8366 8.92502 98.4013 8.99933 98.062 9.1452C97.7256 9.29383 97.4599 9.50576 97.262 9.78374C97.067 10.0617 96.9341 10.4085 96.8663 10.8241C96.7984 11.2397 96.7645 11.7104 96.7645 12.2333C96.7645 12.6379 96.7786 13.037 96.8069 13.4305C96.8352 13.8241 96.9313 14.1736 97.0924 14.4792C97.2564 14.7847 97.508 15.0324 97.85 15.2168C98.1921 15.4039 98.6839 15.4948 99.3228 15.4948L101.327 15.3461L101.361 16.2489C100.821 16.3259 100.36 16.3837 99.973 16.4195C99.5857 16.458 99.2634 16.4773 99.0062 16.4773C98.3673 16.4773 97.8302 16.3975 97.3977 16.2406C96.9652 16.081 96.6175 15.8305 96.3546 15.4865C96.0917 15.1424 95.9023 14.6993 95.7892 14.1599C95.6762 13.6177 95.6196 12.9654 95.6196 12.2002V12.203Z" fill="#59595C"/>
<path d="M103.382 4.49976H104.493V8.58141C105.434 8.16582 106.333 7.95939 107.187 7.95939C107.781 7.95939 108.261 8.05297 108.626 8.23738C108.991 8.42453 109.273 8.68876 109.477 9.03279C109.677 9.37683 109.816 9.79792 109.889 10.2961C109.963 10.7943 110 11.3585 110 11.9915V16.3016H108.889V12.0245C108.889 11.631 108.875 11.2456 108.846 10.8686C108.818 10.4915 108.745 10.1585 108.629 9.86949C108.51 9.5805 108.329 9.3438 108.08 9.1649C107.834 8.98325 107.492 8.89518 107.054 8.89518C106.862 8.89518 106.653 8.91169 106.424 8.94472C106.195 8.97775 105.963 9.02178 105.734 9.07682C105.505 9.13187 105.279 9.18967 105.061 9.25022C104.844 9.31077 104.654 9.37407 104.496 9.43737V16.3071H103.385V4.50527L103.382 4.49976Z" fill="#59595C"/>
<path d="M55.7629 28.0995C55.5689 28.0995 55.3327 28.083 55.0599 28.0501C54.7871 28.0171 54.4497 27.9704 54.0504 27.9154L54.1207 27.3824C54.4778 27.4291 54.79 27.462 55.0571 27.4868C55.3214 27.5088 55.538 27.5225 55.7011 27.5225C56.1004 27.5225 56.3957 27.4373 56.5841 27.2642C56.7725 27.0911 56.8681 26.8355 56.8681 26.4976C56.8681 26.3382 56.8372 26.2091 56.7725 26.1074C56.7106 26.0057 56.6263 25.9233 56.5194 25.8574C56.4153 25.7914 56.2888 25.7392 56.1454 25.698C55.9992 25.6595 55.8445 25.621 55.6758 25.5853C55.4339 25.5276 55.209 25.4644 55.0037 25.3875C54.7984 25.3133 54.6212 25.2171 54.4722 25.099C54.3231 24.9808 54.205 24.8352 54.1235 24.6621C54.0419 24.489 53.9998 24.2774 53.9998 24.0246C53.9998 23.0794 54.6044 22.604 55.8164 22.604C56.016 22.604 56.2466 22.6177 56.511 22.6425C56.7753 22.6672 57.079 22.7084 57.4277 22.7661L57.3715 23.3129C57.0396 23.2717 56.7415 23.2387 56.48 23.2167C56.2157 23.1948 55.9935 23.181 55.8079 23.181C55.0543 23.181 54.6803 23.4503 54.6803 23.9916C54.6803 24.162 54.7197 24.3021 54.7956 24.412C54.8715 24.5219 54.9727 24.6154 55.0993 24.6896C55.2258 24.7637 55.3692 24.8242 55.5323 24.8709C55.6954 24.9176 55.867 24.9643 56.0441 25.0083C56.2269 25.055 56.4097 25.1127 56.5897 25.1786C56.7697 25.2446 56.9271 25.3325 57.0677 25.4397C57.2083 25.5469 57.3208 25.6842 57.408 25.8491C57.4952 26.014 57.5374 26.2173 57.5374 26.4591C57.5374 27.0032 57.3883 27.4126 57.0902 27.6846C56.7922 27.9566 56.3507 28.094 55.7601 28.094L55.7629 28.0995Z" fill="#929497"/>
<path d="M58.772 24.173H59.4188V24.4203C59.6184 24.3076 59.8096 24.2225 59.9952 24.1703C60.178 24.1153 60.3721 24.0906 60.5717 24.0906C61.0301 24.0906 61.3591 24.2197 61.5588 24.4753C61.7809 24.3516 62.0228 24.2582 62.2899 24.1895C62.5542 24.1235 62.7989 24.0906 63.021 24.0906C63.2854 24.0906 63.4991 24.14 63.665 24.2362C63.8309 24.3351 63.9603 24.467 64.0559 24.6374C64.1515 24.8077 64.2162 25.0056 64.2499 25.2336C64.2837 25.4617 64.3005 25.709 64.3005 25.97V28.0144H63.6453V25.9948C63.6453 25.8134 63.6397 25.6431 63.6256 25.4809C63.6116 25.3188 63.5778 25.1759 63.5244 25.0523C63.471 24.9286 63.3866 24.8325 63.2798 24.7583C63.1729 24.6868 63.0267 24.6511 62.8411 24.6511C62.6836 24.6511 62.5093 24.6758 62.3208 24.728C62.1324 24.7802 61.9553 24.8434 61.7922 24.9204C61.854 25.0138 61.8878 25.3793 61.8878 26.0167V28.0144H61.2326V26.0332C61.2326 25.8684 61.2297 25.7035 61.2213 25.5386C61.2129 25.3738 61.1848 25.2254 61.1398 25.0962C61.0948 24.9671 61.0188 24.8572 60.9176 24.7748C60.8164 24.6923 60.6758 24.6511 60.4902 24.6511C60.4114 24.6511 60.3243 24.6594 60.2286 24.6731C60.133 24.6896 60.0402 24.7088 59.9446 24.7335C59.849 24.7583 59.759 24.7885 59.669 24.8187C59.579 24.8489 59.5003 24.8819 59.4328 24.9176V28.0116H58.7776V24.1703L58.772 24.173Z" fill="#929497"/>
<path d="M65.324 26.9185C65.324 26.5421 65.4196 26.2645 65.6108 26.0859C65.802 25.9073 66.1142 25.7947 66.5472 25.7535L67.7396 25.6463V25.3303C67.7396 25.083 67.6861 24.9071 67.5765 24.7972C67.4696 24.6901 67.3121 24.6351 67.1068 24.6351C66.8538 24.6351 66.5979 24.6434 66.342 24.6626C66.0832 24.6818 65.8273 24.7038 65.5686 24.7285L65.5461 24.2587C66.1198 24.1405 66.6316 24.0801 67.0787 24.0801C67.5258 24.0801 67.8774 24.179 68.0855 24.3768C68.2935 24.5747 68.3976 24.8934 68.3976 25.3303V27.2592C68.3976 27.4406 68.541 27.5532 68.825 27.6L68.8025 28.1083C68.5804 28.1083 68.3948 28.0808 68.2429 28.0286C68.0911 27.9736 67.9533 27.8967 67.8324 27.7923C67.374 28.0039 66.9156 28.1083 66.4601 28.1083C66.0804 28.1083 65.7992 28.0066 65.6108 27.8005C65.4252 27.5945 65.3296 27.3032 65.3296 26.9213L65.324 26.9185ZM66.5725 27.5587C66.8931 27.5587 67.2221 27.5038 67.5596 27.3966L67.7424 27.3417V26.1162L66.6288 26.2233C66.401 26.2453 66.2379 26.3085 66.1395 26.4157C66.0382 26.5228 65.9904 26.685 65.9904 26.902C65.9904 27.3389 66.1845 27.5587 66.5754 27.5587H66.5725Z" fill="#929497"/>
<path d="M69.7756 24.1653H70.4224V24.6736C70.8639 24.3768 71.3392 24.1762 71.8425 24.0801V24.7285C71.7413 24.745 71.6316 24.7698 71.5107 24.8055C71.3898 24.8412 71.266 24.8824 71.1395 24.9291C71.013 24.9759 70.8892 25.0253 70.7655 25.0748C70.6418 25.127 70.5293 25.1764 70.4309 25.2204V28.0204H69.7756V24.1625V24.1653Z" fill="#929497"/>
<path d="M74.1822 28.1082C73.9769 28.1082 73.8053 28.0862 73.6704 28.0395C73.5326 27.9928 73.4229 27.9158 73.3385 27.8087C73.2542 27.7015 73.1951 27.5559 73.1557 27.3773C73.1192 27.1987 73.0995 26.9734 73.0995 26.7068V24.7175H72.554V24.1707H73.0995V23.0056H73.7547V24.1707H74.9639V24.7175H73.7547V26.6079C73.7547 26.7508 73.7575 26.8827 73.766 27.0008C73.7744 27.119 73.7941 27.2179 73.8278 27.2976C73.8616 27.3773 73.915 27.4377 73.9909 27.4817C74.0641 27.5257 74.1653 27.5476 74.2918 27.5476L74.978 27.5092L75.0089 28.0175C74.8149 28.0532 74.6546 28.078 74.528 28.0917C74.4015 28.1055 74.2862 28.1109 74.1793 28.1109L74.1822 28.1082Z" fill="#929497"/>
<path d="M79.0669 28.0995C78.8729 28.0995 78.6366 28.083 78.3639 28.0501C78.0911 28.0171 77.7536 27.9704 77.3543 27.9154L77.4246 27.3824C77.7818 27.4291 78.0939 27.462 78.3611 27.4868C78.6254 27.5088 78.8419 27.5225 79.005 27.5225C79.4043 27.5225 79.6996 27.4373 79.888 27.2642C80.0764 27.0911 80.172 26.8355 80.172 26.4976C80.172 26.3382 80.1411 26.2091 80.0764 26.1074C80.0146 26.0057 79.9302 25.9233 79.8233 25.8574C79.7193 25.7914 79.5928 25.7392 79.4493 25.698C79.3031 25.6595 79.1484 25.621 78.9797 25.5853C78.7379 25.5276 78.5129 25.4644 78.3076 25.3875C78.1023 25.3133 77.9252 25.2171 77.7761 25.099C77.6271 24.9808 77.509 24.8352 77.4274 24.6621C77.3459 24.489 77.3037 24.2774 77.3037 24.0246C77.3037 23.0794 77.9083 22.604 79.1203 22.604C79.32 22.604 79.5506 22.6177 79.8149 22.6425C80.0792 22.6672 80.383 22.7084 80.7317 22.7661L80.6754 23.3129C80.3436 23.2717 80.0455 23.2387 79.784 23.2167C79.5196 23.1948 79.2975 23.181 79.1119 23.181C78.3582 23.181 77.9842 23.4503 77.9842 23.9916C77.9842 24.162 78.0236 24.3021 78.0995 24.412C78.1755 24.5219 78.2767 24.6154 78.4032 24.6896C78.5298 24.7637 78.6732 24.8242 78.8363 24.8709C78.9994 24.9176 79.1709 24.9643 79.3481 25.0083C79.5309 25.055 79.7137 25.1127 79.8936 25.1786C80.0736 25.2446 80.2311 25.3325 80.3717 25.4397C80.5123 25.5469 80.6248 25.6842 80.712 25.8491C80.7991 26.014 80.8413 26.2173 80.8413 26.4591C80.8413 27.0032 80.6923 27.4126 80.3942 27.6846C80.0961 27.9566 79.6546 28.094 79.0641 28.094L79.0669 28.0995Z" fill="#929497"/>
<path d="M81.9971 26.1162C81.9971 25.8277 82.0252 25.5611 82.0842 25.3138C82.1433 25.0665 82.2361 24.8522 82.3683 24.6709C82.5004 24.4895 82.6748 24.3439 82.8941 24.2395C83.1135 24.135 83.3834 24.0801 83.704 24.0801C84.0246 24.0801 84.2692 24.1268 84.4858 24.223C84.7023 24.3191 84.8766 24.4538 85.0144 24.6324C85.1522 24.811 85.2507 25.0226 85.3153 25.2726C85.3772 25.5227 85.4109 25.8002 85.4109 26.1107C85.4109 26.3992 85.3828 26.6657 85.3238 26.9103C85.2647 27.1548 85.1691 27.3664 85.0369 27.5423C84.902 27.7209 84.7276 27.8582 84.5083 27.9599C84.2889 28.0588 84.019 28.111 83.6984 28.111C83.3975 28.111 83.1416 28.0671 82.9279 27.9764C82.7142 27.8857 82.537 27.7566 82.3992 27.5862C82.2586 27.4159 82.1574 27.207 82.0955 26.9625C82.0336 26.7179 81.9999 26.4349 81.9999 26.1217L81.9971 26.1162ZM82.6692 26.1079C82.6692 26.314 82.6832 26.5064 82.7085 26.6822C82.7338 26.8608 82.7873 27.0119 82.8632 27.1411C82.9391 27.2702 83.046 27.3691 83.1838 27.4406C83.3216 27.512 83.4959 27.5477 83.7124 27.5477C83.9121 27.5477 84.078 27.5148 84.2102 27.4516C84.3424 27.3884 84.4464 27.2922 84.5251 27.1658C84.6039 27.0394 84.6601 26.8855 84.6911 26.7069C84.722 26.5283 84.7389 26.3222 84.7389 26.0887C84.7389 25.8936 84.7248 25.7068 84.6995 25.5282C84.6742 25.3495 84.6208 25.1957 84.5448 25.061C84.4689 24.9264 84.362 24.822 84.2299 24.745C84.0949 24.6681 83.9177 24.6296 83.6984 24.6296C83.4931 24.6296 83.3244 24.6626 83.1922 24.7285C83.06 24.7945 82.956 24.8934 82.8801 25.0226C82.8041 25.1517 82.7507 25.3056 82.717 25.4897C82.6832 25.6738 82.6692 25.8771 82.6692 26.1024V26.1079Z" fill="#929497"/>
<path d="M86.6538 22.5H87.309V28.023H86.6538V22.5Z" fill="#929497"/>
<path d="M89.9074 28.1087C89.6234 28.1087 89.3956 28.062 89.2212 27.9714C89.0469 27.8807 88.9147 27.7488 88.8191 27.5784C88.7235 27.4081 88.6588 27.2075 88.6251 26.9739C88.5913 26.7404 88.5745 26.4821 88.5745 26.1991V24.1794H89.2297V26.1936C89.2297 26.3749 89.2325 26.5453 89.2409 26.7101C89.2494 26.875 89.2803 27.0179 89.3309 27.1415C89.3815 27.2652 89.4659 27.3641 89.5784 27.4383C89.6909 27.5125 89.8511 27.5509 90.0564 27.5509C90.3517 27.5509 90.6835 27.4603 91.0519 27.2817V24.1794H91.7071V28.0291H91.0519V27.7735C90.8298 27.8917 90.6357 27.9768 90.4642 28.0318C90.2927 28.0868 90.1071 28.1115 89.9074 28.1115V28.1087Z" fill="#929497"/>
<path d="M94.3279 28.1082C94.1226 28.1082 93.9511 28.0862 93.8161 28.0395C93.6783 27.9928 93.5686 27.9158 93.4843 27.8087C93.3999 27.7015 93.3409 27.5559 93.3015 27.3773C93.2649 27.1987 93.2453 26.9734 93.2453 26.7068V24.7175H92.6997V24.1707H93.2453V23.0056H93.9005V24.1707H95.1097V24.7175H93.9005V26.6079C93.9005 26.7508 93.9033 26.8827 93.9117 27.0008C93.9202 27.119 93.9398 27.2179 93.9736 27.2976C94.0073 27.3773 94.0608 27.4377 94.1367 27.4817C94.2098 27.5257 94.311 27.5476 94.4376 27.5476L95.1237 27.5092L95.1547 28.0175C94.9606 28.0532 94.8003 28.078 94.6738 28.0917C94.5472 28.1055 94.432 28.1109 94.3251 28.1109L94.3279 28.1082Z" fill="#929497"/>
<path d="M96.1897 22.5935H96.8449V23.3107H96.1897V22.5935ZM96.1897 24.168H96.8449V28.0258H96.1897V24.168Z" fill="#929497"/>
<path d="M98.054 26.1162C98.054 25.8277 98.0821 25.5611 98.1411 25.3138C98.2002 25.0665 98.293 24.8522 98.4252 24.6709C98.5573 24.4895 98.7317 24.3439 98.951 24.2395C99.1704 24.135 99.4403 24.0801 99.7609 24.0801C100.081 24.0801 100.326 24.1268 100.543 24.223C100.759 24.3191 100.934 24.4538 101.071 24.6324C101.209 24.811 101.308 25.0226 101.372 25.2726C101.434 25.5227 101.468 25.8002 101.468 26.1107C101.468 26.3992 101.44 26.6657 101.381 26.9103C101.322 27.1548 101.226 27.3664 101.094 27.5423C100.959 27.7209 100.785 27.8582 100.565 27.9599C100.346 28.0588 100.076 28.111 99.7553 28.111C99.4544 28.111 99.1985 28.0671 98.9848 27.9764C98.771 27.8857 98.5939 27.7566 98.4561 27.5862C98.3155 27.4159 98.2142 27.207 98.1524 26.9625C98.0905 26.7179 98.0568 26.4349 98.0568 26.1217L98.054 26.1162ZM98.726 26.1079C98.726 26.314 98.7401 26.5064 98.7654 26.6822C98.7907 26.8608 98.8442 27.0119 98.9201 27.1411C98.996 27.2702 99.1029 27.3691 99.2407 27.4406C99.3785 27.512 99.5528 27.5477 99.7693 27.5477C99.969 27.5477 100.135 27.5148 100.267 27.4516C100.399 27.3884 100.503 27.2922 100.582 27.1658C100.661 27.0394 100.717 26.8855 100.748 26.7069C100.779 26.5283 100.796 26.3222 100.796 26.0887C100.796 25.8936 100.782 25.7068 100.756 25.5282C100.731 25.3495 100.678 25.1957 100.602 25.061C100.526 24.9264 100.419 24.822 100.287 24.745C100.152 24.6681 99.9746 24.6296 99.7553 24.6296C99.55 24.6296 99.3813 24.6626 99.2491 24.7285C99.1169 24.7945 99.0129 24.8934 98.937 25.0226C98.861 25.1517 98.8076 25.3056 98.7738 25.4897C98.7401 25.6738 98.726 25.8771 98.726 26.1024V26.1079Z" fill="#929497"/>
<path d="M102.671 24.1731H103.318V24.4204C103.549 24.3022 103.76 24.217 103.945 24.1648C104.131 24.1126 104.319 24.0879 104.51 24.0879C104.783 24.0879 105.008 24.1319 105.183 24.2225C105.357 24.3132 105.492 24.4396 105.593 24.6017C105.692 24.7638 105.762 24.9617 105.798 25.1925C105.835 25.4233 105.855 25.6843 105.855 25.9728V28.0172H105.199V25.9976C105.199 25.8272 105.191 25.6623 105.177 25.503C105.163 25.3436 105.126 25.2007 105.07 25.0743C105.014 24.9479 104.935 24.8463 104.828 24.7693C104.724 24.6924 104.578 24.6539 104.395 24.6539C104.311 24.6539 104.218 24.6622 104.12 24.6759C104.018 24.6924 103.923 24.7144 103.827 24.7419C103.732 24.7693 103.642 24.7995 103.554 24.8298C103.467 24.86 103.391 24.8902 103.329 24.9232V28.0172H102.674V24.1758L102.671 24.1731Z" fill="#929497"/>
<path d="M108.481 28.1079C108.245 28.1079 108.006 28.0914 107.767 28.0584C107.528 28.0254 107.292 27.9869 107.061 27.9457L107.092 27.4044C107.399 27.4456 107.666 27.4814 107.894 27.5088C108.121 27.5363 108.321 27.5528 108.49 27.5528C108.774 27.5528 108.987 27.5088 109.134 27.4182C109.277 27.3275 109.35 27.1764 109.35 26.9593C109.35 26.8521 109.319 26.7614 109.255 26.6845C109.19 26.6076 109.108 26.5471 109.007 26.4949C108.906 26.4427 108.788 26.4015 108.658 26.3685C108.529 26.3356 108.402 26.3081 108.276 26.2888C108.065 26.2531 107.879 26.2091 107.719 26.1569C107.559 26.1047 107.427 26.0388 107.32 25.9564C107.216 25.8739 107.134 25.7723 107.084 25.6514C107.03 25.5305 107.005 25.3848 107.005 25.2145C107.005 24.8243 107.134 24.5385 107.396 24.3572C107.657 24.1758 108.028 24.0879 108.512 24.0879C108.729 24.0879 108.954 24.1044 109.19 24.1346C109.426 24.1648 109.657 24.2005 109.876 24.2418L109.859 24.7803C109.606 24.7446 109.367 24.7116 109.136 24.6841C108.909 24.6567 108.698 24.6402 108.509 24.6402C108.214 24.6402 107.998 24.6842 107.863 24.7721C107.725 24.86 107.657 24.9919 107.657 25.1732C107.657 25.2557 107.671 25.3271 107.699 25.3848C107.728 25.4453 107.778 25.4975 107.849 25.5442C107.919 25.5909 108.012 25.6321 108.124 25.6678C108.237 25.7036 108.377 25.7365 108.546 25.7668C108.698 25.797 108.861 25.8355 109.032 25.8822C109.204 25.9289 109.361 25.9921 109.502 26.0718C109.643 26.1514 109.764 26.2559 109.856 26.3878C109.952 26.5197 110 26.6845 110 26.8851C110 27.3083 109.876 27.616 109.631 27.8111C109.387 28.0062 109.001 28.1051 108.476 28.1051L108.481 28.1079Z" fill="#929497"/>
<path d="M56.1032 30.4658C56.5025 30.4658 56.8343 30.5373 57.0987 30.6829C57.363 30.8258 57.5711 31.0181 57.7258 31.2572C57.8804 31.4962 57.9901 31.7683 58.0548 32.076C58.1166 32.381 58.1504 32.697 58.1504 33.0212C58.1504 33.9362 57.9845 34.6287 57.6498 35.0958C57.3152 35.5629 56.8006 35.7965 56.106 35.7965H54.1628V30.4658H56.106H56.1032ZM56.1032 35.2167C56.345 35.2167 56.5531 35.1617 56.7218 35.0518C56.8934 34.9419 57.034 34.7908 57.1437 34.5957C57.2533 34.4034 57.3349 34.1725 57.3883 33.9005C57.4417 33.6312 57.467 33.34 57.467 33.024C57.467 32.3755 57.3602 31.8837 57.1437 31.5457C56.9271 31.2077 56.5812 31.0401 56.1004 31.0401H54.8377V35.2139H56.1004L56.1032 35.2167Z" fill="#929497"/>
<path d="M60.2399 33.9141C60.2399 33.2244 60.3749 32.7106 60.6476 32.3671C60.9176 32.0236 61.3422 31.8533 61.9159 31.8533C62.453 31.8533 62.8579 32.0016 63.1363 32.2957C63.4119 32.5924 63.5385 33.043 63.5103 33.6503L63.471 34.0982H60.8979C60.8979 34.318 60.9176 34.5076 60.957 34.6615C60.9963 34.8153 61.0582 34.9417 61.1454 35.0407C61.2325 35.1396 61.3478 35.2083 61.4913 35.2522C61.6347 35.2962 61.8203 35.3182 62.0396 35.3182C62.1971 35.3182 62.3742 35.3182 62.5683 35.3099C62.7623 35.3044 62.9479 35.2935 63.1195 35.2797L63.3557 35.2577L63.3725 35.7358C62.8101 35.8348 62.3208 35.8815 61.9046 35.8815C61.5981 35.8815 61.3394 35.8375 61.1257 35.7468C60.912 35.6562 60.7404 35.5298 60.6083 35.3621C60.4761 35.1945 60.3833 34.9884 60.3242 34.7439C60.2652 34.4993 60.2371 34.2246 60.2371 33.9141H60.2399ZM60.8867 33.6283H62.8523C62.8523 33.1859 62.7792 32.8727 62.6301 32.6831C62.4839 32.4962 62.2421 32.4028 61.9131 32.4028C61.5841 32.4028 61.3085 32.499 61.1426 32.6913C60.9766 32.8837 60.8923 33.1969 60.8867 33.6283Z" fill="#929497"/>
<path d="M65.2537 31.9382H65.9398L66.8228 35.2465H67.1153L68.032 31.9382H68.7041L67.6074 35.7961H66.3448L65.2565 31.9382H65.2537Z" fill="#929497"/>
<path d="M70.5741 33.9141C70.5741 33.2244 70.7091 32.7106 70.9819 32.3671C71.2518 32.0236 71.6764 31.8533 72.2501 31.8533C72.7872 31.8533 73.1922 32.0016 73.4706 32.2957C73.7461 32.5924 73.8727 33.043 73.8446 33.6503L73.8052 34.0982H71.2321C71.2321 34.318 71.2518 34.5076 71.2912 34.6615C71.3306 34.8153 71.3924 34.9417 71.4796 35.0407C71.5668 35.1396 71.6821 35.2083 71.8255 35.2522C71.9689 35.2962 72.1545 35.3182 72.3738 35.3182C72.5313 35.3182 72.7085 35.3182 72.9025 35.3099C73.0965 35.3044 73.2821 35.2935 73.4537 35.2797L73.6899 35.2577L73.7068 35.7358C73.1444 35.8348 72.655 35.8815 72.2389 35.8815C71.9323 35.8815 71.6736 35.8375 71.4599 35.7468C71.2462 35.6562 71.0747 35.5298 70.9425 35.3621C70.8103 35.1945 70.7175 34.9884 70.6585 34.7439C70.5994 34.4993 70.5713 34.2246 70.5713 33.9141H70.5741ZM71.2209 33.6283H73.1865C73.1865 33.1859 73.1134 32.8727 72.9644 32.6831C72.8181 32.4962 72.5763 32.4028 72.2473 32.4028C71.9183 32.4028 71.6427 32.499 71.4768 32.6913C71.3109 32.8837 71.2265 33.1969 71.2209 33.6283Z" fill="#929497"/>
<path d="M75.9031 30.2732H76.5583V35.7962H75.9031V30.2732Z" fill="#929497"/>
<path d="M78.7292 33.8923C78.7292 33.6038 78.7574 33.3373 78.8164 33.09C78.8755 32.8427 78.9683 32.6283 79.1004 32.447C79.2326 32.2656 79.407 32.12 79.6263 32.0156C79.8456 31.9112 80.1156 31.8562 80.4362 31.8562C80.7568 31.8562 81.0014 31.9029 81.218 31.9991C81.4345 32.0953 81.6088 32.2299 81.7466 32.4085C81.8844 32.5871 81.9828 32.7987 82.0475 33.0487C82.1094 33.2988 82.1431 33.5763 82.1431 33.8868C82.1431 34.1753 82.115 34.4419 82.056 34.6864C81.9969 34.931 81.9013 35.1425 81.7691 35.3184C81.6341 35.497 81.4598 35.6344 81.2405 35.736C81.0211 35.8349 80.7511 35.8872 80.4306 35.8872C80.1297 35.8872 79.8738 35.8432 79.6601 35.7525C79.4463 35.6618 79.2692 35.5327 79.1314 35.3623C78.9908 35.192 78.8895 34.9832 78.8277 34.7386C78.7658 34.4941 78.7321 34.211 78.7321 33.8978L78.7292 33.8923ZM79.4013 33.884C79.4013 34.0901 79.4154 34.2825 79.4407 34.4583C79.466 34.6369 79.5195 34.7881 79.5954 34.9172C79.6713 35.0463 79.7782 35.1453 79.916 35.2167C80.0537 35.2882 80.2281 35.3239 80.4446 35.3239C80.6443 35.3239 80.8102 35.2909 80.9424 35.2277C81.0745 35.1645 81.1786 35.0683 81.2573 34.9419C81.3361 34.8155 81.3923 34.6617 81.4232 34.4831C81.4542 34.3045 81.471 34.0984 81.471 33.8648C81.471 33.6697 81.457 33.4829 81.4317 33.3043C81.4064 33.1257 81.3529 32.9718 81.277 32.8372C81.2011 32.7025 81.0942 32.5981 80.962 32.5212C80.8271 32.4442 80.6499 32.4058 80.4306 32.4058C80.2253 32.4058 80.0566 32.4387 79.9244 32.5047C79.7922 32.5706 79.6882 32.6695 79.6122 32.7987C79.5363 32.9278 79.4829 33.0817 79.4492 33.2658C79.4154 33.4499 79.4013 33.6532 79.4013 33.8786V33.884Z" fill="#929497"/>
<path d="M84.269 37.5001V31.9386H84.9158V32.2024C85.1267 32.0788 85.3264 31.9909 85.512 31.9359C85.6976 31.8809 85.8916 31.8562 86.0913 31.8562C86.5806 31.8562 86.9377 32.0128 87.1655 32.3261C87.3905 32.6393 87.5058 33.1477 87.5058 33.8456C87.5058 34.2165 87.4748 34.5298 87.4102 34.7853C87.3483 35.0436 87.2471 35.2524 87.1093 35.4145C86.9715 35.5767 86.7943 35.6948 86.5721 35.769C86.35 35.8432 86.0828 35.8817 85.7679 35.8817C85.4839 35.8817 85.2027 35.8514 84.9243 35.7882V37.5001H84.269ZM84.9243 35.2469C85.107 35.2717 85.2701 35.2909 85.4108 35.3046C85.5514 35.3184 85.6695 35.3239 85.7707 35.3239C86.1588 35.3239 86.4372 35.2112 86.6003 34.9831C86.7634 34.7578 86.8449 34.3841 86.8449 33.8648C86.8449 33.3455 86.7746 32.9745 86.6368 32.7492C86.4962 32.5267 86.2909 32.414 86.0182 32.414C85.9338 32.414 85.841 32.4223 85.7426 32.436C85.6413 32.4525 85.5429 32.4745 85.4473 32.5019C85.3489 32.5294 85.2561 32.5624 85.1633 32.5953C85.0705 32.6283 84.9946 32.664 84.9299 32.6998V35.2442L84.9243 35.2469Z" fill="#929497"/>
<path d="M89.5193 31.9472H90.1661V32.1945C90.3657 32.0818 90.5569 31.9966 90.7425 31.9444C90.9253 31.8895 91.1194 31.8647 91.319 31.8647C91.7774 31.8647 92.1064 31.9939 92.3061 32.2494C92.5282 32.1258 92.7701 32.0324 93.0372 31.9637C93.3015 31.8977 93.5462 31.8647 93.7684 31.8647C94.0327 31.8647 94.2464 31.9142 94.4123 32.0104C94.5782 32.1093 94.7076 32.2412 94.8032 32.4115C94.8988 32.5819 94.9635 32.7797 94.9972 33.0078C95.031 33.2359 95.0479 33.4832 95.0479 33.7442V35.7885H94.3926V33.7689C94.3926 33.5876 94.387 33.4172 94.373 33.2551C94.3589 33.093 94.3252 32.9501 94.2717 32.8265C94.2183 32.7028 94.1339 32.6066 94.0271 32.5324C93.9202 32.461 93.774 32.4253 93.5884 32.4253C93.4309 32.4253 93.2566 32.45 93.0681 32.5022C92.8797 32.5544 92.7026 32.6176 92.5395 32.6946C92.6013 32.788 92.6351 33.1534 92.6351 33.7909V35.7885H91.9799V33.8074C91.9799 33.6425 91.9771 33.4777 91.9686 33.3128C91.9602 33.148 91.9321 32.9996 91.8871 32.8704C91.8421 32.7413 91.7661 32.6314 91.6649 32.5489C91.5637 32.4665 91.4231 32.4253 91.2375 32.4253C91.1587 32.4253 91.0716 32.4335 90.9759 32.4473C90.8803 32.4638 90.7875 32.483 90.6919 32.5077C90.5963 32.5324 90.5063 32.5627 90.4163 32.5929C90.3264 32.6231 90.2476 32.6561 90.1801 32.6918V35.7858H89.5249V31.9444L89.5193 31.9472Z" fill="#929497"/>
<path d="M97.1288 33.9141C97.1288 33.2244 97.2638 32.7106 97.5365 32.3671C97.8065 32.0236 98.2311 31.8533 98.8048 31.8533C99.3419 31.8533 99.7468 32.0016 100.025 32.2957C100.301 32.5924 100.427 33.043 100.399 33.6503L100.36 34.0982H97.7868C97.7868 34.318 97.8065 34.5076 97.8459 34.6615C97.8852 34.8153 97.9471 34.9417 98.0343 35.0407C98.1215 35.1396 98.2368 35.2083 98.3802 35.2522C98.5236 35.2962 98.7092 35.3182 98.9285 35.3182C99.086 35.3182 99.2632 35.3182 99.4572 35.3099C99.6512 35.3044 99.8368 35.2935 100.008 35.2797L100.245 35.2577L100.261 35.7358C99.699 35.8348 99.2097 35.8815 98.7935 35.8815C98.487 35.8815 98.2283 35.8375 98.0146 35.7468C97.8009 35.6562 97.6293 35.5298 97.4972 35.3621C97.365 35.1945 97.2722 34.9884 97.2132 34.7439C97.1541 34.4993 97.126 34.2246 97.126 33.9141H97.1288ZM97.7756 33.6283H99.7412C99.7412 33.1859 99.6681 32.8727 99.5191 32.6831C99.3728 32.4962 99.131 32.4028 98.802 32.4028C98.473 32.4028 98.1974 32.499 98.0315 32.6913C97.8656 32.8837 97.7812 33.1969 97.7756 33.6283Z" fill="#929497"/>
<path d="M102.418 31.947H103.065V32.1943C103.296 32.0761 103.506 31.991 103.692 31.9388C103.878 31.8866 104.066 31.8618 104.257 31.8618C104.53 31.8618 104.755 31.9058 104.929 31.9965C105.104 32.0871 105.239 32.2135 105.34 32.3756C105.438 32.5378 105.509 32.7356 105.545 32.9664C105.582 33.1972 105.602 33.4583 105.602 33.7468V35.7911H104.946V33.7715C104.946 33.6011 104.938 33.4363 104.924 33.2769C104.91 33.1175 104.873 32.9747 104.817 32.8483C104.761 32.7219 104.682 32.6202 104.575 32.5433C104.471 32.4663 104.325 32.4279 104.142 32.4279C104.058 32.4279 103.965 32.4361 103.866 32.4498C103.765 32.4663 103.67 32.4883 103.574 32.5158C103.478 32.5433 103.388 32.5735 103.301 32.6037C103.214 32.6339 103.138 32.6642 103.076 32.6971V35.7911H102.421V31.9497L102.418 31.947Z" fill="#929497"/>
<path d="M109.105 35.8814C108.9 35.8814 108.729 35.8594 108.594 35.8127C108.456 35.766 108.346 35.689 108.262 35.5819C108.178 35.4747 108.118 35.3291 108.079 35.1505C108.043 34.9719 108.023 34.7466 108.023 34.48V32.4907H107.477V31.9439H108.023V30.7788H108.678V31.9439H109.887V32.4907H108.678V34.3811C108.678 34.524 108.681 34.6559 108.689 34.774C108.698 34.8922 108.717 34.9911 108.751 35.0708C108.785 35.1505 108.838 35.2109 108.914 35.2549C108.987 35.2989 109.089 35.3209 109.215 35.3209L109.901 35.2824L109.932 35.7907C109.738 35.8264 109.578 35.8512 109.451 35.8649C109.325 35.8786 109.21 35.8841 109.103 35.8841L109.105 35.8814Z" fill="#929497"/>
<defs>
<linearGradient id="paint0_linear_1955_26439" x1="25.199" y1="16.9197" x2="0" y2="16.9197" gradientUnits="userSpaceOnUse">
<stop stop-color="white" stop-opacity="0"/>
<stop offset="0.95" stop-color="#F09526"/>
</linearGradient>
<linearGradient id="paint1_linear_1955_26439" x1="34.6557" y1="12.7462" x2="8.06628" y2="12.7462" gradientUnits="userSpaceOnUse">
<stop stop-color="white" stop-opacity="0"/>
<stop offset="0.24" stop-color="#FACBC6" stop-opacity="0.29"/>
<stop offset="0.51" stop-color="#F5958C" stop-opacity="0.59"/>
<stop offset="0.74" stop-color="#F16E62" stop-opacity="0.81"/>
<stop offset="0.91" stop-color="#EF5647" stop-opacity="0.95"/>
<stop offset="1" stop-color="#EF4D3E"/>
</linearGradient>
<linearGradient id="paint2_linear_1955_26439" x1="25.2017" y1="21.0323" x2="42.0002" y2="21.0323" gradientUnits="userSpaceOnUse">
<stop stop-color="white" stop-opacity="0"/>
<stop offset="0.11" stop-color="#DCEDF7" stop-opacity="0.16"/>
<stop offset="0.39" stop-color="#8FC5E5" stop-opacity="0.52"/>
<stop offset="0.62" stop-color="#56A8D8" stop-opacity="0.78"/>
<stop offset="0.8" stop-color="#3396D0" stop-opacity="0.94"/>
<stop offset="0.89" stop-color="#2690CD"/>
</linearGradient>
<linearGradient id="paint3_linear_1955_26439" x1="41.9998" y1="29.2481" x2="16.8008" y2="29.2481" gradientUnits="userSpaceOnUse">
<stop stop-color="white" stop-opacity="0"/>
<stop offset="0.9" stop-color="#43B98D"/>
</linearGradient>
<linearGradient id="paint4_linear_1955_26439" x1="42" y1="33.3696" x2="0.00251826" y2="33.3696" gradientUnits="userSpaceOnUse">
<stop stop-color="white" stop-opacity="0"/>
<stop offset="0.93" stop-color="#65499C"/>
</linearGradient>
<linearGradient id="paint5_linear_1955_26439" x1="34.6562" y1="16.851" x2="16.7142" y2="16.851" gradientUnits="userSpaceOnUse">
<stop stop-color="white" stop-opacity="0"/>
<stop offset="1" stop-color="white"/>
</linearGradient>
</defs>
</svg>
