<svg width="32" height="32" viewBox="0 0 32 32" fill="none" xmlns="http://www.w3.org/2000/svg">
<path d="M21.3334 24L25.3334 20M25.3334 20L29.3334 24M25.3334 20V28M16 20.6667H10C8.13927 20.6667 7.20889 20.6667 6.45183 20.8963C4.74729 21.4134 3.41341 22.7473 2.89634 24.4518C2.66669 25.2089 2.66669 26.1393 2.66669 28M19.3334 10C19.3334 13.3137 16.6471 16 13.3334 16C10.0196 16 7.33335 13.3137 7.33335 10C7.33335 6.68629 10.0196 4 13.3334 4C16.6471 4 19.3334 6.68629 19.3334 10Z" stroke="#26272B" stroke-width="3" stroke-linecap="round" stroke-linejoin="round"/>
</svg>
