<svg width="32" height="32" viewBox="0 0 32 32" fill="none" xmlns="http://www.w3.org/2000/svg">
<path d="M21.3334 24L24 26.6667L29.3334 21.3333M16 20H10.6667C8.18167 20 6.93915 20 5.95904 20.406C4.65223 20.9473 3.61396 21.9855 3.07266 23.2924C2.66669 24.2725 2.66669 25.515 2.66669 28M20.6667 4.38768C22.6212 5.17886 24 7.09508 24 9.33333C24 11.5716 22.6212 13.4878 20.6667 14.279M18 9.33333C18 12.2789 15.6122 14.6667 12.6667 14.6667C9.72117 14.6667 7.33335 12.2789 7.33335 9.33333C7.33335 6.38781 9.72117 4 12.6667 4C15.6122 4 18 6.38781 18 9.33333Z" stroke="#26272B" stroke-width="3" stroke-linecap="round" stroke-linejoin="round"/>
</svg>
