<svg width="96" height="25" viewBox="0 0 96 25" fill="none" xmlns="http://www.w3.org/2000/svg">
<path d="M20 0.5H4C1.79086 0.5 0 2.29086 0 4.5V20.5C0 22.7091 1.79086 24.5 4 24.5H20C22.2091 24.5 24 22.7091 24 20.5V4.5C24 2.29086 22.2091 0.5 20 0.5Z" fill="#70707B"/>
<path d="M4.76911 5.69897L10.38 13.2014L4.73364 19.3011H6.00431L10.9478 13.9606L14.9419 19.3011H19.2664L13.3398 11.3768L18.5952 5.69924H17.3246L12.772 10.6174L9.09364 5.69897H4.76911ZM6.63791 6.63497H8.62458L17.3974 18.3648H15.4107L6.63791 6.63497Z" fill="white"/>
<g clip-path="url(#clip0_1955_25846)">
<path d="M58.2234 0.5H37.7719C36.7922 0.5 36 1.27344 36 2.22969V22.7656C36 23.7219 36.7922 24.5 37.7719 24.5H58.2234C59.2031 24.5 60 23.7219 60 22.7703V2.22969C60 1.27344 59.2031 0.5 58.2234 0.5ZM43.1203 20.9516H39.5578V9.49531H43.1203V20.9516ZM41.3391 7.93438C40.1953 7.93438 39.2719 7.01094 39.2719 5.87187C39.2719 4.73281 40.1953 3.80937 41.3391 3.80937C42.4781 3.80937 43.4016 4.73281 43.4016 5.87187C43.4016 7.00625 42.4781 7.93438 41.3391 7.93438ZM56.4516 20.9516H52.8937V15.3828C52.8937 14.0562 52.8703 12.3453 51.0422 12.3453C49.1906 12.3453 48.9094 13.7937 48.9094 15.2891V20.9516H45.3563V9.49531H48.7687V11.0609H48.8156C49.2891 10.1609 50.4516 9.20938 52.1813 9.20938C55.7859 9.20938 56.4516 11.5813 56.4516 14.6656V20.9516Z" fill="#70707B"/>
</g>
<rect x="72" y="0.5" width="24" height="24" rx="4" fill="#70707B"/>
<path d="M91.9518 9.20169C91.9129 8.35013 91.7776 7.76862 91.5799 7.25982C91.379 6.72596 91.0642 6.2424 90.6572 5.84276C90.2578 5.43582 89.774 5.12062 89.2402 4.91973C88.7314 4.72222 88.1499 4.58711 87.2983 4.54836C86.4452 4.50942 86.1726 4.5 84 4.5C81.8274 4.5 81.5548 4.50942 80.7017 4.54818C79.8501 4.58711 79.2686 4.7224 78.7598 4.92009C78.226 5.12098 77.7424 5.43582 77.3428 5.84276C76.9358 6.24222 76.6206 6.72578 76.4197 7.25964C76.2222 7.76862 76.0871 8.35013 76.0484 9.20151C76.0092 10.0548 76 10.3274 76 12.5C76 14.6728 76.0092 14.9453 76.0484 15.7985C76.0871 16.6499 76.2224 17.2316 76.4203 17.7404C76.6212 18.274 76.936 18.7578 77.3429 19.1572C77.7424 19.5642 78.2261 19.8792 78.76 20.0799C79.2688 20.2778 79.8503 20.4129 80.7019 20.4518C81.555 20.4908 81.8276 20.5 84.0002 20.5C86.1728 20.5 86.4453 20.4909 87.2985 20.4518C88.15 20.4129 88.7316 20.2778 89.2404 20.0799C90.315 19.6644 91.1644 18.8148 91.5799 17.7404C91.7778 17.2314 91.9129 16.6499 91.9518 15.7985C91.9908 14.9452 92 14.6726 92 12.5C92 10.3274 91.9908 10.0548 91.9518 9.20169ZM90.5118 15.7329C90.4763 16.513 90.346 16.9364 90.2364 17.2184C89.9673 17.9162 89.4158 18.4675 88.7182 18.7366C88.4364 18.8461 88.0128 18.9764 87.2327 19.012C86.3893 19.0506 86.1362 19.0586 84 19.0586C81.8636 19.0586 81.6107 19.0506 80.7673 19.012C79.9874 18.9764 79.5637 18.8461 79.2818 18.7366C78.9344 18.6083 78.6201 18.4038 78.362 18.138C78.0962 17.8799 77.8917 17.5658 77.7634 17.2182C77.6539 16.9364 77.5236 16.5128 77.488 15.7327C77.4496 14.8892 77.4414 14.6362 77.4414 12.5C77.4414 10.3638 77.4496 10.1108 77.488 9.26729C77.5237 8.4872 77.6539 8.06373 77.7634 7.78178C77.8917 7.43422 78.0962 7.11991 78.362 6.86178C78.6201 6.596 78.9344 6.39156 79.282 6.26338C79.5637 6.15369 79.9874 6.02356 80.7675 5.98782C81.6108 5.9496 81.8638 5.94142 84 5.94142C86.1362 5.94142 86.389 5.9496 87.2325 5.98818C88.0126 6.02373 88.4361 6.15404 88.718 6.26356C89.0654 6.39191 89.3797 6.59636 89.6379 6.86196C89.9036 7.12009 90.1081 7.4344 90.2363 7.78196C90.346 8.06373 90.4763 8.48738 90.5118 9.26747C90.5502 10.111 90.5584 10.364 90.5584 12.5002C90.5584 14.6364 90.5504 14.8892 90.5118 15.7329Z" fill="white"/>
<path d="M83.9987 8.39062C81.7299 8.39062 79.8906 10.2299 79.8906 12.4987C79.8906 14.7675 81.7299 16.6068 83.9987 16.6068C86.2677 16.6068 88.1068 14.7675 88.1068 12.4987C88.1068 10.2299 86.2677 8.39062 83.9987 8.39062ZM83.9987 15.1654C82.5262 15.1652 81.3322 13.9714 81.3322 12.4987C81.3322 11.026 82.526 9.83205 83.9989 9.83205C85.4716 9.83223 86.6656 11.026 86.6656 12.4987C86.6656 13.9714 85.4716 15.1654 83.9987 15.1654Z" fill="white"/>
<path d="M89.2325 8.22562C89.2325 8.75576 88.8026 9.18562 88.2725 9.18562C87.7422 9.18562 87.3125 8.75576 87.3125 8.22562C87.3125 7.69531 87.7424 7.26562 88.2725 7.26562C88.8026 7.26562 89.2325 7.69549 89.2325 8.22562Z" fill="white"/>
<defs>
<clipPath id="clip0_1955_25846">
<rect x="36" y="0.5" width="24" height="24" rx="4" fill="white"/>
</clipPath>
</defs>
</svg>
