<svg width="171" height="63" viewBox="0 0 171 63" fill="none" xmlns="http://www.w3.org/2000/svg">
<path d="M40.5684 18.9275H9.41306C7.65429 18.9275 6.22852 20.37 6.22852 22.1494V28.4187C6.22852 30.1981 7.65429 31.6406 9.41306 31.6406H40.5684C42.3271 31.6406 43.7529 30.1981 43.7529 28.4187V22.1494C43.7529 20.37 42.3271 18.9275 40.5684 18.9275Z" fill="url(#paint0_linear_1955_25797)"/>
<path d="M54.653 6.36646H21.4272C19.6684 6.36646 18.2427 7.80897 18.2427 9.58839V28.2671C18.2427 30.0465 19.6684 31.489 21.4272 31.489H54.653C56.4118 31.489 57.8376 30.0465 57.8376 28.2671V9.58839C57.8376 7.80897 56.4118 6.36646 54.653 6.36646Z" fill="url(#paint1_linear_1955_25797)"/>
<path d="M65.5944 18.8938H46.926C45.1734 18.8938 43.7527 20.3312 43.7527 22.1043V40.9918C43.7527 42.7649 45.1734 44.2023 46.926 44.2023H65.5944C67.347 44.2023 68.7677 42.7649 68.7677 40.9918V22.1043C68.7677 20.3312 67.347 18.8938 65.5944 18.8938Z" fill="url(#paint2_linear_1955_25797)"/>
<path d="M65.5872 31.4885H34.4319C32.6731 31.4885 31.2473 32.931 31.2473 34.7104V53.4082C31.2473 55.1876 32.6731 56.6301 34.4319 56.6301H65.5872C67.3459 56.6301 68.7717 55.1876 68.7717 53.4082V34.7104C68.7717 32.931 67.3459 31.4885 65.5872 31.4885Z" fill="url(#paint3_linear_1955_25797)"/>
<path d="M65.5834 44.0494H9.41306C7.65429 44.0494 6.22852 45.4919 6.22852 47.2713V53.4116C6.22852 55.191 7.65429 56.6335 9.41306 56.6335H65.5834C67.3421 56.6335 68.7679 55.191 68.7679 53.4116V47.2713C68.7679 45.4919 67.3421 44.0494 65.5834 44.0494Z" fill="url(#paint4_linear_1955_25797)"/>
<path d="M34.139 31.4651L54.8179 31.4651C56.4855 31.4651 57.8374 30.0973 57.8374 28.4101V21.9473C57.8374 20.2601 56.4855 18.8924 54.8179 18.8924L34.139 18.8924C32.4714 18.8924 31.1195 20.2601 31.1195 21.9473V28.4101C31.1195 30.0973 32.4714 31.4651 34.139 31.4651Z" fill="url(#paint5_linear_1955_25797)"/>
<path d="M34.139 31.4651L54.8179 31.4651C56.4855 31.4651 57.8374 30.0973 57.8374 28.4101V21.9473C57.8374 20.2601 56.4855 18.8924 54.8179 18.8924L34.139 18.8924C32.4714 18.8924 31.1195 20.2601 31.1195 21.9473V28.4101C31.1195 30.0973 32.4714 31.4651 34.139 31.4651Z" fill="url(#paint6_linear_1955_25797)"/>
<path d="M80.7715 5.91064H87.2379C89.1249 5.91064 90.5072 6.32347 91.3934 7.15328C92.2754 7.9831 92.7206 9.26292 92.7206 11.001C92.7206 13.7216 91.6266 15.3854 89.4386 15.9923L92.8987 22.9776H91.0796L87.7213 16.3143H82.4676V22.9776H80.7757V5.91475L80.7715 5.91064ZM87.2634 14.8363C89.7736 14.8363 91.0245 13.5813 91.0245 11.0753C91.0245 8.56934 89.7609 7.38861 87.2379 7.38861H82.4634V14.8404H87.2634V14.8363Z" fill="#59595C"/>
<path d="M95.4219 19.5099C95.4219 18.3622 95.7187 17.4993 96.3166 16.9172C96.9145 16.3351 97.8685 15.9801 99.183 15.8479L103.351 15.4558V14.3493C103.351 13.4824 103.16 12.8466 102.783 12.442C102.406 12.0374 101.871 11.8392 101.18 11.8392C100.353 11.8392 99.5265 11.8764 98.6911 11.9507C97.8558 12.025 97.0205 12.1035 96.1766 12.186L96.1003 10.9558C97.9194 10.6131 99.5434 10.4397 100.977 10.4397C102.41 10.4397 103.398 10.7452 104.047 11.3603C104.695 11.9755 105.018 12.9704 105.018 14.3493V20.8392C105.018 21.12 105.158 21.3429 105.433 21.5163C105.709 21.6897 106.095 21.8177 106.582 21.8961L106.506 23.2255C105.225 23.2255 104.25 22.8828 103.576 22.1934C102.062 22.8828 100.51 23.2255 98.9286 23.2255C97.7667 23.2255 96.8933 22.9035 96.3039 22.2553C95.7145 21.6071 95.4219 20.6947 95.4219 19.514V19.5099ZM99.1576 21.8218C99.747 21.8218 100.336 21.7681 100.926 21.6608C101.515 21.5535 102.113 21.4048 102.719 21.2067L103.351 21.0085V16.6819L99.3865 17.0741C98.5766 17.1567 98 17.3796 97.6565 17.7512C97.313 18.1186 97.1392 18.6883 97.1392 19.4603C97.1392 21.0333 97.8134 21.8218 99.1618 21.8218H99.1576Z" fill="#59595C"/>
<path d="M113.201 23.2215C112.459 23.2215 111.721 23.1761 110.979 23.0852C110.237 22.9944 109.508 22.8829 108.783 22.755L108.885 21.3802C109.843 21.5123 110.687 21.6196 111.412 21.6981C112.137 21.7807 112.769 21.8219 113.307 21.8219C114.35 21.8219 115.126 21.6485 115.631 21.3059C116.135 20.9632 116.39 20.3976 116.39 19.6091C116.39 19.2169 116.267 18.8825 116.025 18.6141C115.779 18.3416 115.478 18.1187 115.118 17.9371C114.757 17.7554 114.363 17.6192 113.943 17.5201C113.523 17.421 113.133 17.3467 112.781 17.2971C112.022 17.165 111.378 17.0123 110.848 16.843C110.318 16.6696 109.889 16.4591 109.559 16.2031C109.232 15.9472 108.991 15.6375 108.838 15.2701C108.685 14.9027 108.609 14.4609 108.609 13.9531C108.609 12.7063 109.016 11.8146 109.834 11.2738C110.653 10.7329 111.844 10.4604 113.409 10.4604C114.049 10.4604 114.745 10.5017 115.491 10.5843C116.241 10.6669 116.95 10.7742 117.624 10.9022L117.573 12.277C116.831 12.1779 116.106 12.0829 115.389 11.9962C114.672 11.9054 113.994 11.86 113.358 11.86C112.281 11.86 111.497 12.0251 111.009 12.3513C110.521 12.6774 110.275 13.1646 110.275 13.8004C110.275 14.3742 110.504 14.8118 110.958 15.1173C111.412 15.4228 112.23 15.6871 113.409 15.9183C113.863 16.0173 114.359 16.1371 114.897 16.2733C115.436 16.4137 115.94 16.6118 116.411 16.8761C116.882 17.1403 117.272 17.4747 117.586 17.8834C117.895 18.2921 118.052 18.8082 118.052 19.4316C118.052 20.7609 117.662 21.7229 116.877 22.3215C116.093 22.9201 114.872 23.2173 113.201 23.2173V23.2215Z" fill="#59595C"/>
<path d="M125.498 23.2461C124.874 23.2461 124.349 23.1759 123.92 23.0355C123.492 22.8952 123.144 22.6598 122.886 22.3213C122.623 21.9869 122.44 21.5287 122.33 20.9548C122.22 20.3809 122.165 19.6667 122.165 18.8162V12.0786H120.32V10.6791H122.165V6.86853H123.831V10.6791H127.949V12.0786H123.831V18.4241C123.831 18.9319 123.844 19.3942 123.869 19.8153C123.895 20.2364 123.971 20.5956 124.098 20.897C124.226 21.1984 124.416 21.4337 124.679 21.5988C124.942 21.764 125.298 21.8465 125.752 21.8465L128.05 21.6731L128.152 22.9777C127.546 23.0768 127.033 23.147 126.613 23.1883C126.193 23.2296 125.82 23.2502 125.502 23.2502L125.498 23.2461Z" fill="#59595C"/>
<path d="M130.425 16.9296C130.425 14.7828 130.845 13.1645 131.689 12.0746C132.533 10.9847 133.86 10.4397 135.679 10.4397C137.362 10.4397 138.643 10.9145 139.516 11.864C140.39 12.8136 140.772 14.2668 140.653 16.2154L140.577 17.4457H132.092C132.092 18.2507 132.155 18.9278 132.283 19.4851C132.41 20.0424 132.622 20.4925 132.927 20.8392C133.228 21.1819 133.635 21.4337 134.14 21.5906C134.644 21.7475 135.276 21.8259 136.035 21.8259C136.523 21.8259 137.074 21.8177 137.689 21.8012C138.304 21.7847 138.88 21.7516 139.419 21.7021L140.178 21.6278L140.229 22.8581C138.444 23.1058 136.913 23.2255 135.632 23.2255C134.657 23.2255 133.834 23.0769 133.169 22.7838C132.503 22.4906 131.969 22.0654 131.566 21.5163C131.163 20.9672 130.871 20.3026 130.697 19.5264C130.519 18.7503 130.434 17.8833 130.434 16.9337L130.425 16.9296ZM132.066 16.1906H138.986C138.986 14.6342 138.724 13.5195 138.202 12.8466C137.68 12.1737 136.837 11.8392 135.675 11.8392C134.513 11.8392 133.559 12.186 132.961 12.8837C132.363 13.5814 132.066 14.6837 132.066 16.1906Z" fill="#59595C"/>
<path d="M143.201 16.8056C143.201 15.9221 143.286 15.0923 143.456 14.3203C143.625 13.5483 143.901 12.8753 144.291 12.2932C144.677 11.7111 145.177 11.2529 145.792 10.9143C146.407 10.5799 147.17 10.4106 148.077 10.4106C148.667 10.4106 149.261 10.4437 149.858 10.5097C150.456 10.5758 151.101 10.6666 151.792 10.7822L151.716 12.0868C151.665 12.0868 151.533 12.0744 151.326 12.0496C151.114 12.0249 150.868 12.0001 150.579 11.9753C150.291 11.9506 149.994 11.9299 149.685 11.9134C149.375 11.8969 149.091 11.8886 148.837 11.8886C148.027 11.8886 147.374 12.0001 146.865 12.2189C146.36 12.4418 145.962 12.7597 145.665 13.1767C145.372 13.5937 145.173 14.1138 145.071 14.7372C144.969 15.3606 144.918 16.0666 144.918 16.851C144.918 17.4579 144.94 18.0565 144.982 18.6469C145.024 19.2373 145.169 19.7616 145.41 20.2198C145.656 20.6781 146.034 21.0496 146.547 21.3262C147.06 21.607 147.798 21.7432 148.756 21.7432L151.762 21.5203L151.813 22.8744C151.003 22.99 150.312 23.0767 149.731 23.1304C149.15 23.1882 148.667 23.2171 148.281 23.2171C147.323 23.2171 146.517 23.0974 145.868 22.862C145.22 22.6226 144.698 22.2469 144.304 21.7308C143.909 21.2148 143.625 20.5501 143.456 19.7409C143.286 18.9276 143.201 17.9492 143.201 16.8015V16.8056Z" fill="#59595C"/>
<path d="M154.845 5.24976H156.511V11.3722C157.923 10.7488 159.272 10.4392 160.552 10.4392C161.443 10.4392 162.164 10.5796 162.711 10.8562C163.258 11.1369 163.682 11.5333 163.987 12.0493C164.288 12.5654 164.496 13.197 164.606 13.9443C164.716 14.6915 164.771 15.5378 164.771 16.4874V22.9525H163.105V16.5369C163.105 15.9466 163.084 15.3686 163.041 14.803C162.999 14.2374 162.889 13.7378 162.715 13.3044C162.537 12.8709 162.265 12.5158 161.892 12.2475C161.523 11.975 161.01 11.8429 160.353 11.8429C160.065 11.8429 159.751 11.8677 159.408 11.9172C159.064 11.9667 158.716 12.0328 158.373 12.1154C158.029 12.1979 157.69 12.2846 157.364 12.3755C157.037 12.4663 156.753 12.5612 156.516 12.6562V22.9608H154.849V5.25802L154.845 5.24976Z" fill="#59595C"/>
<path d="M83.4163 43.65C83.1252 43.65 82.7709 43.6253 82.3617 43.5758C81.9526 43.5264 81.4464 43.4563 80.8474 43.3739L80.9529 42.5743C81.4886 42.6443 81.9568 42.6938 82.3575 42.7309C82.754 42.7639 83.0788 42.7845 83.3235 42.7845C83.9224 42.7845 84.3653 42.6567 84.6479 42.397C84.9306 42.1374 85.074 41.754 85.074 41.2471C85.074 41.008 85.0276 40.8143 84.9306 40.6618C84.8378 40.5093 84.7112 40.3857 84.5509 40.2868C84.3949 40.1878 84.205 40.1095 83.9899 40.0477C83.7706 39.99 83.5386 39.9323 83.2855 39.8787C82.9227 39.7921 82.5853 39.6974 82.2774 39.582C81.9694 39.4707 81.7037 39.3264 81.4801 39.1492C81.2566 38.972 81.0794 38.7535 80.9571 38.4938C80.8348 38.2342 80.7715 37.9168 80.7715 37.5376C80.7715 36.1198 81.6784 35.4067 83.4964 35.4067C83.7959 35.4067 84.1418 35.4274 84.5383 35.4644C84.9348 35.5015 85.3903 35.5634 85.9134 35.6499L85.829 36.4701C85.3313 36.4083 84.8842 36.3588 84.4919 36.3259C84.0954 36.2929 83.7621 36.2723 83.4838 36.2723C82.3533 36.2723 81.7923 36.6762 81.7923 37.4882C81.7923 37.7437 81.8513 37.9539 81.9652 38.1188C82.0791 38.2836 82.231 38.4238 82.4208 38.5351C82.6106 38.6464 82.8257 38.737 83.0704 38.8071C83.315 38.8772 83.5723 38.9472 83.8381 39.0132C84.1123 39.0832 84.3864 39.1698 84.6564 39.2687C84.9264 39.3676 85.1626 39.4995 85.3735 39.6603C85.5844 39.821 85.7531 40.0271 85.8839 40.2744C86.0146 40.5217 86.0779 40.8267 86.0779 41.1894C86.0779 42.0055 85.8543 42.6196 85.4072 43.0276C84.9601 43.4357 84.2978 43.6418 83.412 43.6418L83.4163 43.65Z" fill="#929497"/>
<path d="M87.9297 37.7599H88.8999V38.1308C89.1994 37.9618 89.4862 37.8341 89.7646 37.7557C90.0388 37.6733 90.3298 37.6362 90.6293 37.6362C91.3169 37.6362 91.8104 37.8299 92.1099 38.2132C92.4431 38.0278 92.8059 37.8876 93.2066 37.7846C93.6031 37.6857 93.9701 37.6362 94.3033 37.6362C94.6998 37.6362 95.0204 37.7104 95.2693 37.8547C95.5181 38.003 95.7122 38.2009 95.8556 38.4564C95.999 38.712 96.096 39.0087 96.1466 39.3508C96.1972 39.6929 96.2225 40.0639 96.2225 40.4554V43.5219H95.2397V40.4925C95.2397 40.2205 95.2313 39.965 95.2102 39.7218C95.1891 39.4786 95.1385 39.2643 95.0584 39.0788C94.9782 38.8933 94.8517 38.7491 94.6914 38.6378C94.5311 38.5306 94.3117 38.477 94.0333 38.477C93.7971 38.477 93.5356 38.5141 93.253 38.5924C92.9704 38.6707 92.7046 38.7655 92.46 38.8809C92.5528 39.0211 92.6034 39.5693 92.6034 40.5255V43.5219H91.6206V40.5502C91.6206 40.3029 91.6163 40.0556 91.6037 39.8083C91.591 39.561 91.5489 39.3385 91.4814 39.1447C91.4139 38.951 91.3 38.7862 91.1481 38.6625C90.9963 38.5389 90.7854 38.477 90.507 38.477C90.3889 38.477 90.2581 38.4894 90.1147 38.51C89.9713 38.5347 89.8321 38.5636 89.6887 38.6007C89.5452 38.6378 89.4103 38.6831 89.2753 38.7284C89.1403 38.7738 89.0222 38.8232 88.921 38.8768V43.5178H87.9381V37.7557L87.9297 37.7599Z" fill="#929497"/>
<path d="M97.7578 41.8778C97.7578 41.3131 97.9012 40.8968 98.1881 40.6289C98.4749 40.361 98.9431 40.192 99.5927 40.1302L101.381 39.9695V39.4955C101.381 39.1245 101.301 38.8607 101.137 38.6959C100.976 38.5351 100.74 38.4527 100.432 38.4527C100.052 38.4527 99.6686 38.465 99.2848 38.4939C98.8967 38.5228 98.5129 38.5557 98.1248 38.5928L98.091 37.888C98.9515 37.7108 99.7192 37.6201 100.39 37.6201C101.061 37.6201 101.588 37.7685 101.9 38.0653C102.212 38.362 102.368 38.8401 102.368 39.4955V42.3888C102.368 42.6609 102.583 42.8299 103.009 42.8999L102.976 43.6624C102.642 43.6624 102.364 43.6212 102.136 43.5429C101.908 43.4605 101.702 43.3451 101.52 43.1884C100.833 43.5058 100.145 43.6624 99.4619 43.6624C98.8925 43.6624 98.4707 43.5099 98.1881 43.2008C97.9097 42.8917 97.7662 42.4548 97.7662 41.8819L97.7578 41.8778ZM99.6307 42.8381C100.112 42.8381 100.605 42.7557 101.111 42.5949L101.385 42.5125V40.6743L99.715 40.835C99.3734 40.868 99.1287 40.9628 98.9811 41.1235C98.8292 41.2842 98.7575 41.5274 98.7575 41.853C98.7575 42.5084 99.0486 42.8381 99.6349 42.8381H99.6307Z" fill="#929497"/>
<path d="M104.435 37.7479H105.405V38.5104C106.068 38.0653 106.781 37.7644 107.536 37.6201V38.5928C107.384 38.6175 107.219 38.6547 107.038 38.7082C106.857 38.7618 106.671 38.8236 106.481 38.8937C106.291 38.9638 106.106 39.038 105.92 39.1121C105.734 39.1905 105.566 39.2647 105.418 39.3306V43.5305H104.435V37.7438V37.7479Z" fill="#929497"/>
<path d="M111.045 43.6627C110.737 43.6627 110.48 43.6297 110.277 43.5596C110.071 43.4896 109.906 43.3741 109.78 43.2134C109.653 43.0526 109.565 42.8342 109.505 42.5663C109.451 42.2984 109.421 41.9604 109.421 41.5606V38.5766H108.603V37.7564H109.421V36.0088H110.404V37.7564H112.218V38.5766H110.404V41.4122C110.404 41.6266 110.408 41.8244 110.421 42.0016C110.433 42.1789 110.463 42.3272 110.514 42.4468C110.564 42.5663 110.644 42.657 110.758 42.7229C110.868 42.7889 111.02 42.8218 111.21 42.8218L112.239 42.7641L112.285 43.5266C111.994 43.5802 111.754 43.6173 111.564 43.6379C111.374 43.6585 111.201 43.6668 111.041 43.6668L111.045 43.6627Z" fill="#929497"/>
<path d="M118.372 43.65C118.081 43.65 117.727 43.6253 117.318 43.5758C116.909 43.5264 116.402 43.4563 115.803 43.3739L115.909 42.5743C116.445 42.6443 116.913 42.6938 117.314 42.7309C117.71 42.7639 118.035 42.7845 118.28 42.7845C118.878 42.7845 119.321 42.6567 119.604 42.397C119.887 42.1374 120.03 41.754 120.03 41.2471C120.03 41.008 119.984 40.8143 119.887 40.6618C119.794 40.5093 119.667 40.3857 119.507 40.2868C119.351 40.1878 119.161 40.1095 118.946 40.0477C118.727 39.99 118.495 39.9323 118.242 39.8787C117.879 39.7921 117.541 39.6974 117.233 39.582C116.925 39.4707 116.66 39.3264 116.436 39.1492C116.213 38.972 116.035 38.7535 115.913 38.4938C115.791 38.2342 115.728 37.9168 115.728 37.5376C115.728 36.1198 116.634 35.4067 118.452 35.4067C118.752 35.4067 119.098 35.4274 119.494 35.4644C119.891 35.5015 120.346 35.5634 120.869 35.6499L120.785 36.4701C120.287 36.4083 119.84 36.3588 119.448 36.3259C119.051 36.2929 118.718 36.2723 118.44 36.2723C117.309 36.2723 116.748 36.6762 116.748 37.4882C116.748 37.7437 116.807 37.9539 116.921 38.1188C117.035 38.2836 117.187 38.4238 117.377 38.5351C117.567 38.6464 117.782 38.737 118.026 38.8071C118.271 38.8772 118.528 38.9472 118.794 39.0132C119.068 39.0832 119.342 39.1698 119.612 39.2687C119.882 39.3676 120.119 39.4995 120.33 39.6603C120.54 39.821 120.709 40.0271 120.84 40.2744C120.971 40.5217 121.034 40.8267 121.034 41.1894C121.034 42.0055 120.81 42.6196 120.363 43.0276C119.916 43.4357 119.254 43.6418 118.368 43.6418L118.372 43.65Z" fill="#929497"/>
<path d="M122.768 40.6743C122.768 40.2415 122.81 39.8417 122.898 39.4707C122.987 39.0998 123.126 38.7783 123.324 38.5063C123.523 38.2343 123.784 38.0158 124.113 37.8592C124.442 37.7026 124.847 37.6201 125.328 37.6201C125.809 37.6201 126.176 37.6902 126.501 37.8345C126.825 37.9787 127.087 38.1807 127.294 38.4486C127.5 38.7165 127.648 39.0338 127.745 39.4089C127.838 39.784 127.888 40.2003 127.888 40.666C127.888 41.0988 127.846 41.4986 127.758 41.8654C127.669 42.2322 127.526 42.5496 127.327 42.8134C127.125 43.0813 126.863 43.2874 126.534 43.4399C126.205 43.5882 125.8 43.6665 125.32 43.6665C124.868 43.6665 124.484 43.6006 124.164 43.4646C123.843 43.3286 123.577 43.1349 123.371 42.8793C123.16 42.6238 123.008 42.3105 122.915 41.9437C122.822 41.5769 122.772 41.1524 122.772 40.6825L122.768 40.6743ZM123.776 40.6619C123.776 40.971 123.797 41.2595 123.835 41.5233C123.873 41.7912 123.953 42.0179 124.067 42.2116C124.181 42.4053 124.341 42.5537 124.548 42.6609C124.754 42.768 125.016 42.8216 125.341 42.8216C125.64 42.8216 125.889 42.7722 126.087 42.6774C126.286 42.5826 126.442 42.4383 126.56 42.2487C126.678 42.0591 126.762 41.8283 126.809 41.5604C126.855 41.2925 126.88 40.9834 126.88 40.633C126.88 40.3404 126.859 40.0601 126.821 39.7922C126.783 39.5243 126.703 39.2935 126.589 39.0915C126.475 38.8896 126.315 38.733 126.117 38.6175C125.914 38.5021 125.649 38.4444 125.32 38.4444C125.012 38.4444 124.759 38.4939 124.56 38.5928C124.362 38.6917 124.206 38.8401 124.092 39.0338C123.978 39.2276 123.898 39.4584 123.847 39.7345C123.797 40.0107 123.776 40.3157 123.776 40.6536V40.6619Z" fill="#929497"/>
<path d="M129.752 35.2502H130.735V43.5347H129.752V35.2502Z" fill="#929497"/>
<path d="M134.633 43.6634C134.207 43.6634 133.865 43.5933 133.604 43.4573C133.342 43.3213 133.144 43.1234 133.001 42.8679C132.857 42.6123 132.76 42.3115 132.709 41.9611C132.659 41.6108 132.634 41.2234 132.634 40.7988V37.7694H133.616V40.7906C133.616 41.0626 133.621 41.3181 133.633 41.5654C133.646 41.8127 133.692 42.0271 133.768 42.2125C133.844 42.398 133.971 42.5464 134.139 42.6577C134.308 42.769 134.549 42.8267 134.856 42.8267C135.299 42.8267 135.797 42.6907 136.35 42.4227V37.7694H137.333V43.5438H136.35V43.1605C136.016 43.3377 135.725 43.4655 135.468 43.5479C135.211 43.6304 134.932 43.6675 134.633 43.6675V43.6634Z" fill="#929497"/>
<path d="M141.264 43.6627C140.956 43.6627 140.698 43.6297 140.496 43.5596C140.289 43.4896 140.125 43.3741 139.998 43.2134C139.872 43.0526 139.783 42.8342 139.724 42.5663C139.669 42.2984 139.64 41.9604 139.64 41.5606V38.5766H138.821V37.7564H139.64V36.0088H140.622V37.7564H142.436V38.5766H140.622V41.4122C140.622 41.6266 140.627 41.8244 140.639 42.0016C140.652 42.1789 140.681 42.3272 140.732 42.4468C140.783 42.5663 140.863 42.657 140.977 42.7229C141.086 42.7889 141.238 42.8218 141.428 42.8218L142.457 42.7641L142.504 43.5266C142.213 43.5802 141.972 43.6173 141.782 43.6379C141.593 43.6585 141.42 43.6668 141.259 43.6668L141.264 43.6627Z" fill="#929497"/>
<path d="M144.056 35.3905H145.039V36.4662H144.056V35.3905ZM144.056 37.7522H145.039V43.539H144.056V37.7522Z" fill="#929497"/>
<path d="M146.853 40.6743C146.853 40.2415 146.895 39.8417 146.984 39.4707C147.072 39.0998 147.211 38.7783 147.41 38.5063C147.608 38.2343 147.869 38.0158 148.198 37.8592C148.527 37.7026 148.932 37.6201 149.413 37.6201C149.894 37.6201 150.261 37.6902 150.586 37.8345C150.911 37.9787 151.172 38.1807 151.379 38.4486C151.586 38.7165 151.733 39.0338 151.83 39.4089C151.923 39.784 151.974 40.2003 151.974 40.666C151.974 41.0988 151.931 41.4986 151.843 41.8654C151.754 42.2322 151.611 42.5496 151.413 42.8134C151.21 43.0813 150.949 43.2874 150.62 43.4399C150.291 43.5882 149.886 43.6665 149.405 43.6665C148.953 43.6665 148.57 43.6006 148.249 43.4646C147.928 43.3286 147.663 43.1349 147.456 42.8793C147.245 42.6238 147.093 42.3105 147 41.9437C146.908 41.5769 146.857 41.1524 146.857 40.6825L146.853 40.6743ZM147.861 40.6619C147.861 40.971 147.882 41.2595 147.92 41.5233C147.958 41.7912 148.038 42.0179 148.152 42.2116C148.266 42.4053 148.426 42.5537 148.633 42.6609C148.84 42.768 149.101 42.8216 149.426 42.8216C149.725 42.8216 149.974 42.7722 150.172 42.6774C150.371 42.5826 150.527 42.4383 150.645 42.2487C150.763 42.0591 150.847 41.8283 150.894 41.5604C150.94 41.2925 150.965 40.9834 150.965 40.633C150.965 40.3404 150.944 40.0601 150.906 39.7922C150.868 39.5243 150.788 39.2935 150.674 39.0915C150.561 38.8896 150.4 38.733 150.202 38.6175C150 38.5021 149.734 38.4444 149.405 38.4444C149.097 38.4444 148.844 38.4939 148.645 38.5928C148.447 38.6917 148.291 38.8401 148.177 39.0338C148.063 39.2276 147.983 39.4584 147.933 39.7345C147.882 40.0107 147.861 40.3157 147.861 40.6536V40.6619Z" fill="#929497"/>
<path d="M153.779 37.7597H154.749V38.1307C155.095 37.9534 155.411 37.8257 155.69 37.7474C155.968 37.669 156.251 37.632 156.537 37.632C156.947 37.632 157.284 37.6979 157.546 37.8339C157.807 37.9699 158.01 38.1595 158.161 38.4027C158.309 38.6459 158.415 38.9426 158.469 39.2888C158.524 39.6351 158.554 40.0266 158.554 40.4594V43.5259H157.571V40.4965C157.571 40.2409 157.558 39.9936 157.537 39.7546C157.516 39.5155 157.461 39.3012 157.377 39.1116C157.293 38.922 157.174 38.7695 157.014 38.6541C156.858 38.5387 156.639 38.481 156.365 38.481C156.238 38.481 156.099 38.4934 155.951 38.514C155.799 38.5387 155.656 38.5717 155.512 38.6129C155.369 38.6541 155.234 38.6994 155.103 38.7448C154.973 38.7901 154.859 38.8355 154.766 38.8849V43.5259H153.783V37.7639L153.779 37.7597Z" fill="#929497"/>
<path d="M162.494 43.6619C162.139 43.6619 161.781 43.6372 161.422 43.5877C161.064 43.5382 160.71 43.4805 160.364 43.4187L160.41 42.6068C160.87 42.6686 161.271 42.7222 161.612 42.7634C161.954 42.8046 162.253 42.8293 162.506 42.8293C162.933 42.8293 163.253 42.7634 163.472 42.6274C163.688 42.4914 163.797 42.2647 163.797 41.939C163.797 41.7783 163.751 41.6423 163.654 41.5269C163.557 41.4115 163.434 41.3208 163.283 41.2425C163.131 41.1642 162.954 41.1024 162.76 41.0529C162.566 41.0034 162.376 40.9622 162.186 40.9334C161.87 40.8798 161.591 40.8138 161.351 40.7355C161.11 40.6572 160.912 40.5583 160.752 40.4347C160.596 40.311 160.473 40.1585 160.397 39.9772C160.317 39.7958 160.279 39.5774 160.279 39.3218C160.279 38.7365 160.473 38.3079 160.866 38.0359C161.258 37.7638 161.815 37.632 162.54 37.632C162.865 37.632 163.202 37.6567 163.557 37.702C163.911 37.7474 164.257 37.8009 164.586 37.8628L164.561 38.6706C164.181 38.617 163.823 38.5676 163.477 38.5263C163.135 38.4851 162.819 38.4604 162.536 38.4604C162.093 38.4604 161.768 38.5263 161.566 38.6582C161.359 38.7901 161.258 38.988 161.258 39.26C161.258 39.3836 161.279 39.4908 161.321 39.5774C161.363 39.668 161.439 39.7464 161.545 39.8164C161.65 39.8865 161.789 39.9483 161.958 40.0019C162.127 40.0555 162.338 40.1049 162.591 40.1503C162.819 40.1956 163.063 40.2533 163.321 40.3234C163.578 40.3934 163.814 40.4882 164.025 40.6078C164.236 40.7273 164.417 40.8839 164.556 41.0818C164.7 41.2796 164.772 41.5269 164.772 41.8278C164.772 42.4625 164.586 42.9241 164.219 43.2168C163.852 43.5094 163.274 43.6578 162.485 43.6578L162.494 43.6619Z" fill="#929497"/>
<path d="M83.9266 47.199C84.5256 47.199 85.0233 47.3062 85.4199 47.5246C85.8164 47.7389 86.1285 48.0274 86.3605 48.386C86.5925 48.7446 86.757 49.1526 86.854 49.6143C86.9468 50.0718 86.9974 50.5458 86.9974 51.0321C86.9974 52.4046 86.7486 53.4433 86.2466 54.1439C85.7446 54.8446 84.9727 55.195 83.9308 55.195H81.0161V47.199H83.9308H83.9266ZM83.9266 54.3253C84.2894 54.3253 84.6015 54.2428 84.8546 54.078C85.1119 53.9131 85.3228 53.6864 85.4873 53.3938C85.6518 53.1053 85.7742 52.7591 85.8543 52.351C85.9345 51.9471 85.9724 51.5102 85.9724 51.0362C85.9724 50.0635 85.8121 49.3257 85.4873 48.8188C85.1625 48.3118 84.6437 48.0604 83.9224 48.0604H82.0285V54.3212H83.9224L83.9266 54.3253Z" fill="#929497"/>
<path d="M90.1317 52.3714C90.1317 51.3368 90.3341 50.5661 90.7433 50.0509C91.1482 49.5357 91.7852 49.2802 92.6457 49.2802C93.4513 49.2802 94.0587 49.5027 94.4763 49.9437C94.8897 50.3889 95.0795 51.0648 95.0373 51.9757L94.9783 52.6475H91.1187C91.1187 52.9772 91.1482 53.2616 91.2073 53.4924C91.2663 53.7233 91.3591 53.9129 91.4899 54.0612C91.6207 54.2096 91.7936 54.3127 92.0087 54.3786C92.2239 54.4446 92.5023 54.4775 92.8313 54.4775C93.0675 54.4775 93.3332 54.4775 93.6243 54.4651C93.9153 54.4569 94.1937 54.4404 94.451 54.4198L94.8054 54.3868L94.8307 55.104C93.987 55.2524 93.2531 55.3225 92.6288 55.3225C92.169 55.3225 91.781 55.2565 91.4604 55.1205C91.1398 54.9845 90.8825 54.7949 90.6842 54.5435C90.486 54.292 90.3468 53.9829 90.2582 53.6161C90.1696 53.2493 90.1274 52.8371 90.1274 52.3714H90.1317ZM91.1018 51.9427H94.0503C94.0503 51.2791 93.9406 50.8093 93.7171 50.5249C93.4977 50.2446 93.135 50.1045 92.6414 50.1045C92.1479 50.1045 91.7346 50.2487 91.4857 50.5372C91.2368 50.8258 91.1103 51.2956 91.1018 51.9427Z" fill="#929497"/>
<path d="M97.6523 49.4075H98.6816L100.006 54.3699H100.445L101.82 49.4075H102.828L101.183 55.1942H99.289L97.6566 49.4075H97.6523Z" fill="#929497"/>
<path d="M105.633 52.3714C105.633 51.3368 105.836 50.5661 106.245 50.0509C106.65 49.5357 107.287 49.2802 108.147 49.2802C108.953 49.2802 109.56 49.5027 109.978 49.9437C110.391 50.3889 110.581 51.0648 110.539 51.9757L110.48 52.6475H106.62C106.62 52.9772 106.65 53.2616 106.709 53.4924C106.768 53.7233 106.861 53.9129 106.991 54.0612C107.122 54.2096 107.295 54.3127 107.51 54.3786C107.725 54.4446 108.004 54.4775 108.333 54.4775C108.569 54.4775 108.835 54.4775 109.126 54.4651C109.417 54.4569 109.695 54.4404 109.952 54.4198L110.307 54.3868L110.332 55.104C109.489 55.2524 108.755 55.3225 108.13 55.3225C107.67 55.3225 107.282 55.2565 106.962 55.1205C106.641 54.9845 106.384 54.7949 106.186 54.5435C105.987 54.292 105.848 53.9829 105.76 53.6161C105.671 53.2493 105.629 52.8371 105.629 52.3714H105.633ZM106.603 51.9427H109.552C109.552 51.2791 109.442 50.8093 109.219 50.5249C108.999 50.2446 108.636 50.1045 108.143 50.1045C107.649 50.1045 107.236 50.2487 106.987 50.5372C106.738 50.8258 106.612 51.2956 106.603 51.9427Z" fill="#929497"/>
<path d="M113.626 46.9099H114.609V55.1944H113.626V46.9099Z" fill="#929497"/>
<path d="M117.866 52.3386C117.866 51.9058 117.908 51.506 117.996 51.1351C118.085 50.7641 118.224 50.4426 118.423 50.1706C118.621 49.8986 118.882 49.6801 119.211 49.5235C119.54 49.3669 119.945 49.2844 120.426 49.2844C120.907 49.2844 121.274 49.3545 121.599 49.4988C121.924 49.643 122.185 49.845 122.392 50.1129C122.598 50.3808 122.746 50.6982 122.843 51.0732C122.936 51.4483 122.987 51.8646 122.987 52.3303C122.987 52.7631 122.944 53.1629 122.856 53.5297C122.767 53.8966 122.624 54.2139 122.426 54.4777C122.223 54.7456 121.962 54.9517 121.633 55.1042C121.304 55.2525 120.899 55.3309 120.418 55.3309C119.966 55.3309 119.583 55.2649 119.262 55.1289C118.941 54.9929 118.676 54.7992 118.469 54.5436C118.258 54.2881 118.106 53.9749 118.013 53.608C117.921 53.2412 117.87 52.8167 117.87 52.3468L117.866 52.3386ZM118.874 52.3262C118.874 52.6353 118.895 52.9238 118.933 53.1876C118.971 53.4555 119.051 53.6822 119.165 53.8759C119.279 54.0696 119.439 54.218 119.646 54.3252C119.852 54.4324 120.114 54.4859 120.439 54.4859C120.738 54.4859 120.987 54.4365 121.185 54.3417C121.384 54.2469 121.54 54.1026 121.658 53.913C121.776 53.7234 121.86 53.4926 121.907 53.2247C121.953 52.9568 121.978 52.6477 121.978 52.2973C121.978 52.0047 121.957 51.7244 121.919 51.4565C121.881 51.1886 121.801 50.9578 121.687 50.7558C121.573 50.5539 121.413 50.3973 121.215 50.2819C121.012 50.1665 120.747 50.1088 120.418 50.1088C120.11 50.1088 119.857 50.1582 119.658 50.2571C119.46 50.3561 119.304 50.5044 119.19 50.6981C119.076 50.8919 118.996 51.1227 118.946 51.3988C118.895 51.675 118.874 51.98 118.874 52.318V52.3262Z" fill="#929497"/>
<path d="M126.175 57.7503V49.4081H127.145V49.8038C127.462 49.6183 127.761 49.4864 128.04 49.404C128.318 49.3215 128.609 49.2844 128.909 49.2844C129.643 49.2844 130.178 49.5194 130.52 49.9892C130.857 50.4591 131.03 51.2216 131.03 52.2685C131.03 52.8249 130.984 53.2948 130.887 53.6781C130.794 54.0655 130.642 54.3788 130.436 54.6219C130.229 54.8651 129.963 55.0424 129.63 55.1536C129.297 55.2649 128.896 55.3226 128.424 55.3226C127.998 55.3226 127.576 55.2773 127.158 55.1825V57.7503H126.175ZM127.158 54.3705C127.432 54.4076 127.677 54.4365 127.888 54.4571C128.099 54.4777 128.276 54.4859 128.428 54.4859C129.01 54.4859 129.427 54.3169 129.672 53.9748C129.917 53.6369 130.039 53.0763 130.039 52.2973C130.039 51.5183 129.934 50.9619 129.727 50.624C129.516 50.2901 129.208 50.1211 128.799 50.1211C128.672 50.1211 128.533 50.1335 128.386 50.1541C128.234 50.1788 128.086 50.2118 127.943 50.253C127.795 50.2942 127.656 50.3437 127.517 50.3931C127.377 50.4426 127.264 50.4962 127.167 50.5498V54.3664L127.158 54.3705Z" fill="#929497"/>
<path d="M134.051 49.42H135.021V49.791C135.32 49.622 135.607 49.4942 135.886 49.4159C136.16 49.3335 136.451 49.2964 136.75 49.2964C137.438 49.2964 137.931 49.4901 138.231 49.8734C138.564 49.6879 138.927 49.5478 139.328 49.4448C139.724 49.3458 140.091 49.2964 140.424 49.2964C140.821 49.2964 141.141 49.3706 141.39 49.5148C141.639 49.6632 141.833 49.861 141.977 50.1166C142.12 50.3721 142.217 50.6689 142.268 51.011C142.318 51.3531 142.344 51.724 142.344 52.1156V55.1821H141.361V52.1527C141.361 51.8806 141.352 51.6251 141.331 51.3819C141.31 51.1388 141.26 50.9244 141.179 50.739C141.099 50.5535 140.973 50.4092 140.812 50.2979C140.652 50.1908 140.433 50.1372 140.154 50.1372C139.918 50.1372 139.657 50.1743 139.374 50.2526C139.091 50.3309 138.826 50.4257 138.581 50.5411C138.674 50.6813 138.724 51.2294 138.724 52.1857V55.1821H137.742V52.2104C137.742 51.9631 137.737 51.7158 137.725 51.4685C137.712 51.2212 137.67 50.9986 137.602 50.8049C137.535 50.6112 137.421 50.4463 137.269 50.3227C137.117 50.199 136.906 50.1372 136.628 50.1372C136.51 50.1372 136.379 50.1496 136.236 50.1702C136.092 50.1949 135.953 50.2237 135.81 50.2608C135.666 50.2979 135.531 50.3433 135.396 50.3886C135.261 50.4339 135.143 50.4834 135.042 50.537V55.178H134.059V49.4159L134.051 49.42Z" fill="#929497"/>
<path d="M145.465 52.3714C145.465 51.3368 145.668 50.5661 146.077 50.0509C146.482 49.5357 147.119 49.2802 147.979 49.2802C148.785 49.2802 149.392 49.5027 149.81 49.9437C150.223 50.3889 150.413 51.0648 150.371 51.9757L150.312 52.6475H146.452C146.452 52.9772 146.482 53.2616 146.541 53.4924C146.6 53.7233 146.693 53.9129 146.823 54.0612C146.954 54.2096 147.127 54.3127 147.342 54.3786C147.557 54.4446 147.836 54.4775 148.165 54.4775C148.401 54.4775 148.667 54.4775 148.958 54.4651C149.249 54.4569 149.527 54.4404 149.785 54.4198L150.139 54.3868L150.164 55.104C149.321 55.2524 148.587 55.3225 147.962 55.3225C147.503 55.3225 147.114 55.2565 146.794 55.1205C146.473 54.9845 146.216 54.7949 146.018 54.5435C145.819 54.292 145.68 53.9829 145.592 53.6161C145.503 53.2493 145.461 52.8371 145.461 52.3714H145.465ZM146.435 51.9427H149.384C149.384 51.2791 149.274 50.8093 149.051 50.5249C148.831 50.2446 148.468 50.1045 147.975 50.1045C147.481 50.1045 147.068 50.2487 146.819 50.5372C146.57 50.8258 146.444 51.2956 146.435 51.9427Z" fill="#929497"/>
<path d="M153.399 49.4212H154.369V49.7922C154.715 49.615 155.032 49.4872 155.31 49.4089C155.588 49.3306 155.871 49.2935 156.158 49.2935C156.567 49.2935 156.904 49.3594 157.166 49.4954C157.427 49.6314 157.63 49.821 157.782 50.0642C157.929 50.3074 158.035 50.6041 158.09 50.9504C158.145 51.2966 158.174 51.6881 158.174 52.1209V55.1874H157.191V52.158C157.191 51.9025 157.179 51.6552 157.158 51.4161C157.136 51.1771 157.082 50.9627 156.997 50.7731C156.913 50.5835 156.795 50.431 156.634 50.3156C156.478 50.2002 156.259 50.1425 155.985 50.1425C155.858 50.1425 155.719 50.1549 155.572 50.1755C155.42 50.2002 155.276 50.2332 155.133 50.2744C154.989 50.3156 154.854 50.361 154.724 50.4063C154.593 50.4516 154.479 50.497 154.386 50.5464V55.1874H153.403V49.4254L153.399 49.4212Z" fill="#929497"/>
<path d="M163.43 55.3228C163.122 55.3228 162.865 55.2898 162.662 55.2198C162.456 55.1497 162.291 55.0343 162.165 54.8735C162.038 54.7128 161.95 54.4944 161.89 54.2265C161.836 53.9586 161.806 53.6206 161.806 53.2208V50.2367H160.988V49.4165H161.806V47.6689H162.789V49.4165H164.603V50.2367H162.789V53.0724C162.789 53.2867 162.793 53.4846 162.806 53.6618C162.818 53.839 162.848 53.9874 162.899 54.1069C162.949 54.2265 163.029 54.3171 163.143 54.3831C163.253 54.449 163.405 54.482 163.595 54.482L164.624 54.4243L164.67 55.1868C164.379 55.2404 164.139 55.2775 163.949 55.2981C163.759 55.3187 163.586 55.3269 163.426 55.3269L163.43 55.3228Z" fill="#929497"/>
<defs>
<linearGradient id="paint0_linear_1955_25797" x1="43.7529" y1="25.284" x2="6.22852" y2="25.284" gradientUnits="userSpaceOnUse">
<stop stop-color="white" stop-opacity="0"/>
<stop offset="0.95" stop-color="#F09526"/>
</linearGradient>
<linearGradient id="paint1_linear_1955_25797" x1="57.8376" y1="18.9277" x2="18.2427" y2="18.9277" gradientUnits="userSpaceOnUse">
<stop stop-color="white" stop-opacity="0"/>
<stop offset="0.24" stop-color="#FACBC6" stop-opacity="0.29"/>
<stop offset="0.51" stop-color="#F5958C" stop-opacity="0.59"/>
<stop offset="0.74" stop-color="#F16E62" stop-opacity="0.81"/>
<stop offset="0.91" stop-color="#EF5647" stop-opacity="0.95"/>
<stop offset="1" stop-color="#EF4D3E"/>
</linearGradient>
<linearGradient id="paint2_linear_1955_25797" x1="43.7564" y1="31.55" x2="68.7714" y2="31.55" gradientUnits="userSpaceOnUse">
<stop stop-color="white" stop-opacity="0"/>
<stop offset="0.11" stop-color="#DCEDF7" stop-opacity="0.16"/>
<stop offset="0.39" stop-color="#8FC5E5" stop-opacity="0.52"/>
<stop offset="0.62" stop-color="#56A8D8" stop-opacity="0.78"/>
<stop offset="0.8" stop-color="#3396D0" stop-opacity="0.94"/>
<stop offset="0.89" stop-color="#2690CD"/>
</linearGradient>
<linearGradient id="paint3_linear_1955_25797" x1="68.7717" y1="44.065" x2="31.2473" y2="44.065" gradientUnits="userSpaceOnUse">
<stop stop-color="white" stop-opacity="0"/>
<stop offset="0.9" stop-color="#43B98D"/>
</linearGradient>
<linearGradient id="paint4_linear_1955_25797" x1="68.7717" y1="50.3415" x2="6.23227" y2="50.3415" gradientUnits="userSpaceOnUse">
<stop stop-color="white" stop-opacity="0"/>
<stop offset="0.93" stop-color="#65499C"/>
</linearGradient>
<linearGradient id="paint5_linear_1955_25797" x1="57.8374" y1="25.1806" x2="31.1195" y2="25.1806" gradientUnits="userSpaceOnUse">
<stop stop-color="white" stop-opacity="0"/>
<stop offset="1" stop-color="white"/>
</linearGradient>
<linearGradient id="paint6_linear_1955_25797" x1="57.8374" y1="25.1806" x2="31.1195" y2="25.1806" gradientUnits="userSpaceOnUse">
<stop stop-color="white" stop-opacity="0"/>
<stop offset="1" stop-color="white"/>
</linearGradient>
</defs>
</svg>
